<?xml version="1.0" encoding="UTF-8"?>
<svg version="1.1" xmlns="http://www.w3.org/2000/svg" width="512" height="512">
<path d="M0 0 C1.76674022 -0.00627517 3.53347914 -0.01292288 5.30021667 -0.01991272 C11.06561387 -0.04080606 16.83101092 -0.05129172 22.59643555 -0.0612793 C24.58678895 -0.06533044 26.57714222 -0.06944746 28.56749535 -0.07362938 C37.90867872 -0.09263768 47.24985435 -0.10688555 56.59105331 -0.11524135 C67.3645418 -0.12503955 78.13782625 -0.15144433 88.91124278 -0.19174224 C97.25115805 -0.22186699 105.59101461 -0.2367062 113.93098325 -0.24002236 C118.90821153 -0.24237419 123.88522069 -0.25135436 128.86239052 -0.27648354 C133.53696421 -0.29970979 138.2111735 -0.30401958 142.88578987 -0.29372215 C144.60108399 -0.29322559 146.31639578 -0.29958149 148.03163528 -0.3132782 C150.37258859 -0.33092751 152.71222346 -0.32392693 155.05317688 -0.31074524 C156.36296163 -0.31313359 157.67274637 -0.31552195 159.02222157 -0.31798267 C163.00828621 0.26259104 164.67053681 1.26892906 167.4206543 4.17700195 C168.19518122 8.27643177 168.34701989 10.56242311 166.26586914 14.18969727 C164.63767902 16.32542273 162.9118268 18.31235987 161.1081543 20.30200195 C159.809859 21.80207596 158.51300046 23.30339458 157.2175293 24.8059082 C156.57106445 25.54470215 155.92459961 26.28349609 155.25854492 27.04467773 C152.68555818 30.02986187 150.26508944 33.12008516 147.8581543 36.23950195 C143.40966855 41.95440494 138.86102517 47.58185728 134.27612305 53.18774414 C131.57670318 56.49582506 128.90549468 59.82020309 126.29174805 63.1965332 C125.54924805 64.15462891 125.54924805 64.15462891 124.79174805 65.13208008 C123.86390916 66.33422556 122.94042806 67.53975245 122.0222168 68.74926758 C116.53912277 75.85352408 116.53912277 75.85352408 111.95572186 76.55338287 C111.02760095 76.55409538 110.09948004 76.55480789 109.14323425 76.55554199 C108.07398712 76.56374466 107.00473999 76.57194733 105.90309143 76.58039856 C104.73479294 76.57425034 103.56649445 76.56810211 102.36279297 76.56176758 C101.12809265 76.56714035 99.89339233 76.57251312 98.62127686 76.57804871 C95.93594421 76.58784194 93.25122562 76.59225869 90.56593895 76.58769226 C86.30616724 76.58086668 82.04666389 76.5967827 77.78694153 76.61608887 C68.72736032 76.65395145 59.66780242 76.66671794 50.6081543 76.67700195 C40.86355043 76.68809742 31.11907127 76.70376289 21.37455159 76.74771452 C17.84118008 76.76294524 14.30802267 76.77203221 10.77461815 76.76631165 C-12.96703505 76.73012449 -33.5989448 77.84260013 -53.5793457 92.17700195 C-54.44946289 92.78801758 -55.31958008 93.3990332 -56.21606445 94.02856445 C-65.13825456 100.77556369 -71.71172556 109.4369366 -78.5793457 118.17700195 C-79.60891164 119.475482 -80.6388408 120.77367415 -81.66918945 122.0715332 C-82.61901013 123.27288046 -83.56825104 124.47468639 -84.5168457 125.67700195 C-85.19118652 126.53152954 -85.19118652 126.53152954 -85.87915039 127.40332031 C-87.83108697 129.89141898 -89.73514402 132.39616029 -91.56762695 134.97387695 C-96.24744648 141.49034406 -96.24744648 141.49034406 -100.2668457 142.73950195 C-103.5793457 143.17700195 -103.5793457 143.17700195 -107.5793457 143.17700195 C-109.62346001 144.80381845 -109.62346001 144.80381845 -111.3918457 146.98950195 C-112.32963867 148.05104492 -112.32963867 148.05104492 -113.28637695 149.1340332 C-113.71305664 149.80821289 -114.13973633 150.48239258 -114.5793457 151.17700195 C-114.2493457 152.16700195 -113.9193457 153.15700195 -113.5793457 154.17700195 C-113.01099756 159.13049498 -112.98919945 161.93759249 -116.03637695 165.96606445 C-117.1357744 167.26116266 -118.25543706 168.53925514 -119.3918457 169.80200195 C-120.58726245 171.19402465 -121.7812465 172.58727883 -122.97387695 173.98168945 C-123.57796387 174.67746094 -124.18205078 175.37323242 -124.80444336 176.09008789 C-127.98295787 179.82735639 -130.932373 183.74477081 -133.88720703 187.65991211 C-140.21235692 195.85959075 -140.21235692 195.85959075 -146.26673889 196.67147827 C-147.71466872 196.68905528 -149.16296919 196.68475781 -150.61083984 196.6628418 C-151.40493759 196.66663849 -152.19903534 196.67043518 -153.01719666 196.67434692 C-155.63337115 196.68173644 -158.24842674 196.66039497 -160.86450195 196.63793945 C-162.68623219 196.63555417 -164.50796492 196.63464989 -166.32969666 196.63516235 C-170.14362027 196.6320372 -173.95716722 196.61549264 -177.77099609 196.58862305 C-182.65925496 196.55461954 -187.54710062 196.54699534 -192.43546391 196.54851341 C-196.19555097 196.54796957 -199.95554775 196.53700053 -203.71560478 196.52251053 C-205.51812494 196.51614774 -207.32065533 196.51220484 -209.12318611 196.51072311 C-211.64138341 196.50638595 -214.15914292 196.48887688 -216.67724609 196.4675293 C-217.42177032 196.46843567 -218.16629456 196.46934204 -218.93338013 196.47027588 C-222.60646098 196.4247517 -225.51955229 196.33604023 -228.5793457 194.17700195 C-230.19640545 190.94288246 -230.11225425 187.67689298 -229.5793457 184.17700195 C-228.08854101 181.66743093 -226.78338116 179.82553951 -224.8918457 177.67700195 C-224.15514648 176.79141602 -224.15514648 176.79141602 -223.40356445 175.88793945 C-222.35206179 174.62507947 -221.29272895 173.36870482 -220.22631836 172.1184082 C-217.45416821 168.85067354 -214.77450807 165.50823713 -212.0793457 162.17700195 C-210.97523453 160.82279004 -209.87106818 159.46862311 -208.7668457 158.11450195 C-205.8301259 154.50007758 -202.94540889 150.8475741 -200.0793457 147.17700195 C-195.5973446 141.43689528 -191.01978013 135.78006949 -186.4152832 130.13793945 C-182.92404487 125.85248577 -179.48115682 121.53370742 -176.0793457 117.17700195 C-171.5973446 111.43689528 -167.01978013 105.78006949 -162.4152832 100.13793945 C-158.92404231 95.85248262 -155.48129038 91.53360569 -152.0793457 87.17700195 C-146.50441445 80.04121261 -140.79803279 73.01560946 -135.0690918 66.00317383 C-133.7210014 64.35064741 -132.37757036 62.69450171 -131.03637695 61.03637695 C-124.07203592 52.45381555 -117.1852993 44.16386936 -108.5793457 37.17700195 C-107.63317383 36.40485352 -106.68700195 35.63270508 -105.7121582 34.8371582 C-74.9576109 10.21816947 -39.00279933 0.0611737 0 0 Z " fill="#ED2D0D" transform="translate(229.579345703125,157.822998046875)"/>
<path d="M0 0 C1.19114662 -0.00569504 1.19114662 -0.00569504 2.40635681 -0.01150513 C5.0225313 -0.01889465 7.6375869 0.00244683 10.25366211 0.02490234 C12.07539235 0.02728763 13.89712508 0.02819191 15.71885681 0.02767944 C19.53278043 0.0308046 23.34632737 0.04734915 27.16015625 0.07421875 C32.04841512 0.10822226 36.93626077 0.11584645 41.82462406 0.11432838 C45.58471113 0.11487222 49.34470791 0.12584126 53.10476494 0.14033127 C54.9072851 0.14669406 56.70981548 0.15063695 58.51234627 0.15211868 C61.03054357 0.15645584 63.54830308 0.17396491 66.06640625 0.1953125 C67.1831926 0.19395294 67.1831926 0.19395294 68.32254028 0.19256592 C71.99562113 0.23809009 74.90871245 0.32680156 77.96850586 2.48583984 C79.58556561 5.71995934 79.50141441 8.98594881 78.96850586 12.48583984 C77.47770117 14.99541087 76.17254132 16.83730229 74.28100586 18.98583984 C73.78987305 19.57623047 73.29874023 20.16662109 72.79272461 20.77490234 C71.74122195 22.03776232 70.68188911 23.29413698 69.61547852 24.54443359 C66.84332836 27.81216825 64.16366823 31.15460467 61.46850586 34.48583984 C60.36439468 35.84005176 59.26022833 37.19421868 58.15600586 38.54833984 C55.21928606 42.16276422 52.33456905 45.81526769 49.46850586 49.48583984 C44.98650476 55.22594652 40.40894029 60.88277231 35.80444336 66.52490234 C32.31320503 70.81035603 28.87031698 75.12913438 25.46850586 79.48583984 C20.98650476 85.22594652 16.40894029 90.88277231 11.80444336 96.52490234 C8.31320503 100.81035603 4.87031698 105.12913438 1.46850586 109.48583984 C-3.01349524 115.22594652 -7.59105971 120.88277231 -12.19555664 126.52490234 C-15.68679497 130.81035603 -19.12968302 135.12913438 -22.53149414 139.48583984 C-27.01349524 145.22594652 -31.59105971 150.88277231 -36.19555664 156.52490234 C-39.68680835 160.81037245 -43.12897755 165.12967242 -46.53149414 169.48583984 C-50.62827137 174.71683004 -54.74719426 179.92937906 -58.90649414 185.11083984 C-59.44209961 185.78630859 -59.97770508 186.46177734 -60.52954102 187.15771484 C-61.04323242 187.79451172 -61.55692383 188.43130859 -62.08618164 189.08740234 C-62.53461426 189.64766113 -62.98304688 190.20791992 -63.44506836 190.78515625 C-66.70909144 194.28426132 -68.82427384 196.31924248 -73.7121582 196.99377441 C-75.15695551 197.01740566 -76.60221486 197.01920798 -78.04711914 197.00341797 C-78.8396106 197.01042725 -79.63210205 197.01743652 -80.4486084 197.0246582 C-83.0599301 197.04221777 -85.67016203 197.03062321 -88.28149414 197.01708984 C-90.10083219 197.01978536 -91.92016883 197.02366827 -93.73950195 197.02868652 C-97.54921203 197.03457879 -101.35854653 197.02602744 -105.16821289 197.00732422 C-110.04760637 196.98453472 -114.92611976 196.99765928 -119.80548096 197.02161407 C-123.56134656 197.03607944 -127.31700405 197.03146269 -131.07287598 197.02110291 C-132.87178655 197.01843766 -134.67071611 197.02169828 -136.46960449 197.03102112 C-138.98553392 197.04119906 -141.50004515 197.02566945 -144.01586914 197.00341797 C-145.12726257 197.01556335 -145.12726257 197.01556335 -146.2611084 197.0279541 C-149.82730725 196.96962501 -151.91771327 196.55492612 -154.99023438 194.68933105 C-157.03149414 192.48583984 -157.03149414 192.48583984 -157.70727539 188.71240234 C-157.36043252 183.55624344 -154.56134566 180.57622167 -151.21899414 176.86083984 C-150.01339218 175.45299093 -148.80898416 174.04411879 -147.60571289 172.63427734 C-147.00033691 171.93657227 -146.39496094 171.23886719 -145.77124023 170.52001953 C-143.25957986 167.58328725 -140.89365996 164.54307065 -138.53149414 161.48583984 C-134.05274237 155.74326158 -129.47186214 150.08882598 -124.86743164 144.44677734 C-121.37619331 140.16132366 -117.93330526 135.84254531 -114.53149414 131.48583984 C-110.04949304 125.74573317 -105.47192857 120.08890738 -100.86743164 114.44677734 C-97.37619331 110.16132366 -93.93330526 105.84254531 -90.53149414 101.48583984 C-86.04949304 95.74573317 -81.47192857 90.08890738 -76.86743164 84.44677734 C-73.37619331 80.16132366 -69.93330526 75.84254531 -66.53149414 71.48583984 C-62.04949304 65.74573317 -57.47192857 60.08890738 -52.86743164 54.44677734 C-49.37619331 50.16132366 -45.93330526 45.84254531 -42.53149414 41.48583984 C-38.05600458 35.75407251 -33.4894692 30.10172751 -28.88500977 24.47314453 C-26.19609123 21.17865713 -23.53640884 17.86776578 -20.93774414 14.50146484 C-20.44725586 13.86724609 -19.95676758 13.23302734 -19.45141602 12.57958984 C-18.53599011 11.39092127 -17.62544249 10.19847193 -16.72094727 9.00146484 C-11.73826938 2.53408887 -8.24966465 -0.12487285 0 0 Z " fill="#010000" transform="translate(433.031494140625,157.51416015625)"/>
<path d="M0 0 C1.76674022 -0.00627517 3.53347914 -0.01292288 5.30021667 -0.01991272 C11.06561387 -0.04080606 16.83101092 -0.05129172 22.59643555 -0.0612793 C24.58678895 -0.06533044 26.57714222 -0.06944746 28.56749535 -0.07362938 C37.90867872 -0.09263768 47.24985435 -0.10688555 56.59105331 -0.11524135 C67.3645418 -0.12503955 78.13782625 -0.15144433 88.91124278 -0.19174224 C97.25115805 -0.22186699 105.59101461 -0.2367062 113.93098325 -0.24002236 C118.90821153 -0.24237419 123.88522069 -0.25135436 128.86239052 -0.27648354 C133.53696421 -0.29970979 138.2111735 -0.30401958 142.88578987 -0.29372215 C144.60108399 -0.29322559 146.31639578 -0.29958149 148.03163528 -0.3132782 C150.37258859 -0.33092751 152.71222346 -0.32392693 155.05317688 -0.31074524 C156.36296163 -0.31313359 157.67274637 -0.31552195 159.02222157 -0.31798267 C163.00828621 0.26259104 164.67053681 1.26892906 167.4206543 4.17700195 C168.19518122 8.27643177 168.34701989 10.56242311 166.26586914 14.18969727 C164.63767902 16.32542273 162.9118268 18.31235987 161.1081543 20.30200195 C159.809859 21.80207596 158.51300046 23.30339458 157.2175293 24.8059082 C156.57106445 25.54470215 155.92459961 26.28349609 155.25854492 27.04467773 C152.68555818 30.02986187 150.26508944 33.12008516 147.8581543 36.23950195 C143.40966855 41.95440494 138.86102517 47.58185728 134.27612305 53.18774414 C131.57670318 56.49582506 128.90549468 59.82020309 126.29174805 63.1965332 C125.54924805 64.15462891 125.54924805 64.15462891 124.79174805 65.13208008 C123.86390916 66.33422556 122.94042806 67.53975245 122.0222168 68.74926758 C116.53912277 75.85352408 116.53912277 75.85352408 111.95572186 76.55338287 C111.02760095 76.55409538 110.09948004 76.55480789 109.14323425 76.55554199 C108.07398712 76.56374466 107.00473999 76.57194733 105.90309143 76.58039856 C104.73479294 76.57425034 103.56649445 76.56810211 102.36279297 76.56176758 C101.12809265 76.56714035 99.89339233 76.57251312 98.62127686 76.57804871 C95.93594421 76.58784194 93.25122562 76.59225869 90.56593895 76.58769226 C86.30616724 76.58086668 82.04666389 76.5967827 77.78694153 76.61608887 C68.72736032 76.65395145 59.66780242 76.66671794 50.6081543 76.67700195 C40.86355043 76.68809742 31.11907127 76.70376289 21.37455159 76.74771452 C17.84118008 76.76294524 14.30802267 76.77203221 10.77461815 76.76631165 C-12.96703505 76.73012449 -33.5989448 77.84260013 -53.5793457 92.17700195 C-54.44946289 92.78801758 -55.31958008 93.3990332 -56.21606445 94.02856445 C-65.13825456 100.77556369 -71.71172556 109.4369366 -78.5793457 118.17700195 C-79.60891164 119.475482 -80.6388408 120.77367415 -81.66918945 122.0715332 C-82.61901013 123.27288046 -83.56825104 124.47468639 -84.5168457 125.67700195 C-85.19118652 126.53152954 -85.19118652 126.53152954 -85.87915039 127.40332031 C-87.83108697 129.89141898 -89.73514402 132.39616029 -91.56762695 134.97387695 C-96.25726898 141.5040215 -96.25726898 141.5040215 -100.2043457 142.92700195 C-104.13160762 143.21791024 -105.5709314 142.65451962 -108.5793457 140.17700195 C-110.17993589 136.97582159 -109.97222579 134.72734034 -109.5793457 131.17700195 C-107.9810211 128.3573513 -105.91341296 126.03163736 -103.7668457 123.61450195 C-102.56646178 122.20403442 -101.36726326 120.79255726 -100.16918945 119.38012695 C-99.56445801 118.67694336 -98.95972656 117.97375977 -98.33666992 117.24926758 C-95.74303661 114.19081251 -93.28533855 111.03368158 -90.8293457 107.86450195 C-89.92904952 106.71678137 -89.02802314 105.56963315 -88.1262207 104.4230957 C-86.50384465 102.35853069 -84.89059361 100.2879495 -83.2824707 98.2121582 C-74.55294266 87.17642506 -64.85033233 79.05245426 -52.5793457 72.17700195 C-51.75950195 71.70520508 -50.9396582 71.2334082 -50.0949707 70.74731445 C-39.60545766 65.08016143 -26.90190193 61.04510862 -14.96047974 61.05674744 C-13.31996895 61.05468544 -13.31996895 61.05468544 -11.64631653 61.05258179 C-9.86930611 61.0579747 -9.86930611 61.0579747 -8.05639648 61.06347656 C-6.79730972 61.06333054 -5.53822296 61.06318451 -4.24098206 61.06303406 C-0.80135001 61.06274797 2.63824693 61.06861426 6.07787085 61.07560802 C9.67732915 61.0818729 13.27678831 61.08244783 16.87625122 61.08363342 C23.68654965 61.08673751 30.49683196 61.09493844 37.3071233 61.10498291 C45.0628563 61.11617273 52.81859008 61.12166173 60.57432914 61.12667835 C76.52311351 61.13712183 92.47188182 61.15470338 108.4206543 61.17700195 C108.87711082 60.23961685 108.87711082 60.23961685 109.3427887 59.28329468 C110.41146963 57.19495001 111.57965641 55.58115041 113.07299805 53.77856445 C113.59676025 53.14128418 114.12052246 52.50400391 114.66015625 51.84741211 C115.22049561 51.17242676 115.78083496 50.49744141 116.3581543 49.80200195 C117.53878156 48.36527369 118.71845241 46.92775901 119.8972168 45.48950195 C120.48921875 44.76762695 121.0812207 44.04575195 121.69116211 43.30200195 C125.08422506 39.13299857 128.383312 34.89098906 131.69018555 30.65356445 C133.96949903 27.73863729 136.27859936 24.84820732 138.59130859 21.9597168 C139.30917038 21.06296234 140.02703217 20.16620789 140.76664734 19.24227905 C141.31246964 18.56073761 141.85829193 17.87919617 142.4206543 17.17700195 C121.07056867 17.10670233 99.72050231 17.05391161 78.37032413 17.02156544 C68.45550208 17.00614267 58.54075224 16.98514166 48.62597656 16.95068359 C39.9771936 16.9206399 31.32846297 16.90139366 22.67962927 16.89473647 C18.10654969 16.89084939 13.53361974 16.88181171 8.96058846 16.85981178 C4.64237896 16.83920918 0.32437848 16.8332153 -3.9938755 16.83767891 C-5.56544003 16.8368642 -7.13701273 16.8310418 -8.70853424 16.81938553 C-23.12246698 16.71786222 -37.12519018 18.48062607 -50.8293457 23.17700195 C-51.69358154 23.4704248 -52.55781738 23.76384766 -53.44824219 24.06616211 C-73.04777281 31.03857883 -89.53636682 41.93340842 -104.5793457 56.17700195 C-105.39016602 56.9349707 -106.20098633 57.69293945 -107.03637695 58.47387695 C-112.80834098 64.03677772 -117.72597696 70.00026243 -122.5949707 76.3371582 C-125.82656314 80.53105188 -129.19807003 84.60350745 -132.5793457 88.67700195 C-137.29305597 94.36787488 -141.92389171 100.11026896 -146.46606445 105.9387207 C-149.94788547 110.39789499 -153.50182642 114.79434427 -157.0793457 119.17700195 C-161.12916638 124.13932439 -165.13739764 129.12854215 -169.0793457 134.17700195 C-173.02129691 139.22546578 -177.02969139 144.2145401 -181.0793457 149.17700195 C-188.26227394 157.98198453 -195.26825521 166.91869961 -202.24389648 175.88818359 C-202.86982697 176.69300674 -203.49575745 177.4978299 -204.14065552 178.32704163 C-204.61542328 178.93752853 -205.09019104 179.54801544 -205.5793457 180.17700195 C-198.33887501 180.50338217 -191.10002016 180.75109007 -183.85364819 180.90237236 C-180.48716815 180.97504506 -177.12576355 181.07327888 -173.76220703 181.2331543 C-158.25871674 182.73188265 -158.25871674 182.73188265 -144.51367188 177.27294922 C-141.99714692 174.40246842 -140.14615559 171.29108832 -138.45407104 167.87976074 C-137.29050542 165.61473937 -135.79274757 163.73613188 -134.16918945 161.7824707 C-132.81905088 160.04327651 -131.46996331 158.30350868 -130.12817383 156.55786133 C-126.80380007 152.28922914 -126.80380007 152.28922914 -124.5793457 151.17700195 C-121.07573716 150.91747539 -118.4152306 150.83407482 -115.1418457 152.17700195 C-113.14690008 154.73053235 -113.0958524 156.80916868 -113.16650391 159.99243164 C-113.94393224 164.10622748 -116.65869074 166.76499345 -119.3918457 169.80200195 C-120.58726245 171.19402465 -121.7812465 172.58727883 -122.97387695 173.98168945 C-123.57796387 174.67746094 -124.18205078 175.37323242 -124.80444336 176.09008789 C-127.98295787 179.82735639 -130.932373 183.74477081 -133.88720703 187.65991211 C-140.21235692 195.85959075 -140.21235692 195.85959075 -146.26673889 196.67147827 C-147.71466872 196.68905528 -149.16296919 196.68475781 -150.61083984 196.6628418 C-151.40493759 196.66663849 -152.19903534 196.67043518 -153.01719666 196.67434692 C-155.63337115 196.68173644 -158.24842674 196.66039497 -160.86450195 196.63793945 C-162.68623219 196.63555417 -164.50796492 196.63464989 -166.32969666 196.63516235 C-170.14362027 196.6320372 -173.95716722 196.61549264 -177.77099609 196.58862305 C-182.65925496 196.55461954 -187.54710062 196.54699534 -192.43546391 196.54851341 C-196.19555097 196.54796957 -199.95554775 196.53700053 -203.71560478 196.52251053 C-205.51812494 196.51614774 -207.32065533 196.51220484 -209.12318611 196.51072311 C-211.64138341 196.50638595 -214.15914292 196.48887688 -216.67724609 196.4675293 C-217.42177032 196.46843567 -218.16629456 196.46934204 -218.93338013 196.47027588 C-222.60646098 196.4247517 -225.51955229 196.33604023 -228.5793457 194.17700195 C-230.19640545 190.94288246 -230.11225425 187.67689298 -229.5793457 184.17700195 C-228.08854101 181.66743093 -226.78338116 179.82553951 -224.8918457 177.67700195 C-224.15514648 176.79141602 -224.15514648 176.79141602 -223.40356445 175.88793945 C-222.35206179 174.62507947 -221.29272895 173.36870482 -220.22631836 172.1184082 C-217.45416821 168.85067354 -214.77450807 165.50823713 -212.0793457 162.17700195 C-210.97523453 160.82279004 -209.87106818 159.46862311 -208.7668457 158.11450195 C-205.8301259 154.50007758 -202.94540889 150.8475741 -200.0793457 147.17700195 C-195.5973446 141.43689528 -191.01978013 135.78006949 -186.4152832 130.13793945 C-182.92404487 125.85248577 -179.48115682 121.53370742 -176.0793457 117.17700195 C-171.5973446 111.43689528 -167.01978013 105.78006949 -162.4152832 100.13793945 C-158.92404231 95.85248262 -155.48129038 91.53360569 -152.0793457 87.17700195 C-146.50441445 80.04121261 -140.79803279 73.01560946 -135.0690918 66.00317383 C-133.7210014 64.35064741 -132.37757036 62.69450171 -131.03637695 61.03637695 C-124.07203592 52.45381555 -117.1852993 44.16386936 -108.5793457 37.17700195 C-107.63317383 36.40485352 -106.68700195 35.63270508 -105.7121582 34.8371582 C-74.9576109 10.21816947 -39.00279933 0.0611737 0 0 Z " fill="#020000" transform="translate(229.579345703125,157.822998046875)"/>
<path d="M0 0 C1.0169696 -0.0065712 2.03393921 -0.0131424 3.08172607 -0.01991272 C6.43396078 -0.0395629 9.78615101 -0.05128578 13.13842773 -0.0612793 C14.28510359 -0.06535482 15.43177944 -0.06943035 16.61320305 -0.07362938 C22.67491346 -0.09444817 28.73660147 -0.1087717 34.79833984 -0.11816406 C41.06199816 -0.12925937 47.32530426 -0.16370734 53.58883762 -0.20333576 C58.40578382 -0.22944233 63.22264496 -0.23785028 68.03965569 -0.24144554 C70.34935846 -0.24632174 72.65905719 -0.25796493 74.96869087 -0.27648354 C78.19556126 -0.3007622 81.42150425 -0.29993107 84.6484375 -0.29296875 C85.6028624 -0.30577881 86.55728729 -0.31858887 87.54063416 -0.33178711 C91.74492418 -0.29867585 94.15228289 -0.17609901 97.84727478 1.9724884 C100.12933197 4.6033341 100.55803082 6.55927812 100.32446289 10.03149414 C99.21289731 14.25294546 96.32224055 17.13033034 93.44702148 20.30200195 C92.14872618 21.80207596 90.85186764 23.30339458 89.55639648 24.8059082 C88.90993164 25.54470215 88.2634668 26.28349609 87.59741211 27.04467773 C85.02442537 30.02986187 82.60395663 33.12008516 80.19702148 36.23950195 C75.74853574 41.95440494 71.19989236 47.58185728 66.61499023 53.18774414 C63.91557037 56.49582506 61.24436186 59.82020309 58.63061523 63.1965332 C57.88811523 64.15462891 57.88811523 64.15462891 57.13061523 65.13208008 C56.20277635 66.33422556 55.27929524 67.53975245 54.36108398 68.74926758 C49.9522681 74.46161881 49.9522681 74.46161881 46.75952148 76.17700195 C43.46847403 76.50279235 40.21180658 76.32981702 36.91186523 76.1965332 C34.92428507 76.16518604 32.93664781 76.1373036 30.94897461 76.11254883 C27.82826261 76.06139764 24.71411522 75.99022456 21.59570312 75.85839844 C10.23870576 75.0094852 10.23870576 75.0094852 -0.22088623 78.49127197 C-3.60976544 81.71225931 -6.0201785 85.44091212 -8.2897644 89.5039978 C-9.47895399 91.5966554 -10.89091399 93.44341433 -12.39672852 95.31762695 C-13.58741035 96.89726485 -14.77781315 98.47714046 -15.95922852 100.0637207 C-17.93185851 102.6657754 -19.4861696 104.34079601 -22.24047852 106.17700195 C-24.90154557 106.38160602 -27.45882908 106.47071461 -30.12084961 106.4675293 C-30.92280258 106.47424652 -31.72475555 106.48096375 -32.55101013 106.48788452 C-35.20537491 106.50690143 -37.85948733 106.51079062 -40.51391602 106.51293945 C-42.35853174 106.51936503 -44.20314644 106.5260932 -46.04776001 106.53311157 C-49.91638553 106.54509372 -53.78492169 106.54879145 -57.65356445 106.54760742 C-62.60917594 106.54740423 -67.56421397 106.57470261 -72.51968956 106.60915184 C-76.3304202 106.63139765 -80.14101237 106.63544567 -83.9518013 106.63438797 C-85.77864177 106.63674757 -87.60548585 106.64559129 -89.43226242 106.6610527 C-91.98902183 106.68066525 -94.54453863 106.67489371 -97.10131836 106.6628418 C-97.85474014 106.67408081 -98.60816193 106.68531982 -99.38441467 106.69689941 C-102.98351276 106.65382307 -105.10217758 106.26081168 -108.20498657 104.38052368 C-110.24047852 102.17700195 -110.24047852 102.17700195 -110.94750977 98.43481445 C-110.58625842 93.06445937 -107.4113464 89.89452621 -103.92797852 86.05200195 C-102.62968322 84.55192795 -101.33282468 83.05060933 -100.03735352 81.5480957 C-99.39088867 80.80930176 -98.74442383 80.07050781 -98.07836914 79.30932617 C-95.5053824 76.32414204 -93.08491366 73.23391874 -90.67797852 70.11450195 C-86.76146008 65.08300939 -82.77249116 60.11638 -78.74047852 55.17700195 C-74.60606568 50.11156886 -70.51728453 45.01591145 -66.49047852 39.86450195 C-48.23594276 16.56237252 -31.15100864 0.08794835 0 0 Z " fill="#020000" transform="translate(225.240478515625,247.822998046875)"/>
<path d="M0 0 C1.9204438 0.01485695 1.9204438 0.01485695 3.87968445 0.03001404 C7.27215432 0.05665354 10.66250268 0.12533033 14.05413818 0.20294189 C17.51952412 0.274746 20.98525535 0.30656152 24.45117188 0.34179688 C31.24310484 0.41895111 38.03346954 0.53606954 44.82421875 0.68359375 C42.65481588 3.98813238 40.4932726 7.22743615 37.9765625 10.27734375 C37.20119141 11.22287109 37.20119141 11.22287109 36.41015625 12.1875 C35.86617187 12.84621094 35.3221875 13.50492188 34.76171875 14.18359375 C30.56119285 19.30917929 26.39950029 24.45783062 22.32421875 29.68359375 C17.8426047 35.423996 13.26464562 41.08053547 8.66015625 46.72265625 C5.16891792 51.00810993 1.72602987 55.32688828 -1.67578125 59.68359375 C-6.15778235 65.42370043 -10.73534682 71.08052621 -15.33984375 76.72265625 C-18.83108208 81.00810993 -22.27397013 85.32688828 -25.67578125 89.68359375 C-30.15778235 95.42370043 -34.73534682 101.08052621 -39.33984375 106.72265625 C-42.83108208 111.00810993 -46.27397013 115.32688828 -49.67578125 119.68359375 C-53.61773245 124.73205757 -57.62612694 129.72113189 -61.67578125 134.68359375 C-66.6978377 140.83973482 -71.64930499 147.04607156 -76.54296875 153.3046875 C-76.94445633 153.79868042 -77.34594391 154.29267334 -77.75959778 154.80163574 C-79.24137798 156.6935523 -79.24137798 156.6935523 -80.49406433 158.95141602 C-82.86792849 162.70482479 -84.64663114 165.26154005 -89.04266357 166.47486877 C-92.57648365 166.7252924 -96.00663318 166.69592238 -99.546875 166.5625 C-101.46307396 166.54339821 -101.46307396 166.54339821 -103.41798401 166.52391052 C-106.79538063 166.4821811 -110.1671821 166.40155016 -113.54302979 166.30157471 C-116.99499445 166.20906503 -120.44754048 166.16831016 -123.90039062 166.12304688 C-130.66038643 166.02399353 -137.41776124 165.87353251 -144.17578125 165.68359375 C-143.22890013 164.41839287 -142.28164202 163.15347413 -141.33422852 161.88867188 C-140.54303368 160.83202332 -140.54303368 160.83202332 -139.7358551 159.75402832 C-137.56263859 156.86986832 -135.34673497 154.02123404 -133.11328125 151.18359375 C-132.64921875 150.59320313 -132.18515625 150.0028125 -131.70703125 149.39453125 C-127.53114344 144.09990426 -123.27667838 138.87082913 -119.01342773 133.64648438 C-115.52149218 129.36048092 -112.07812492 125.04098125 -108.67578125 120.68359375 C-104.19378015 114.94348707 -99.61621568 109.28666129 -95.01171875 103.64453125 C-91.52048042 99.35907757 -88.07759237 95.04029922 -84.67578125 90.68359375 C-80.19378015 84.94348707 -75.61621568 79.28666129 -71.01171875 73.64453125 C-67.52048042 69.35907757 -64.07759237 65.04029922 -60.67578125 60.68359375 C-56.19378015 54.94348707 -51.61621568 49.28666129 -47.01171875 43.64453125 C-43.06753787 38.80309595 -39.19400465 33.91154899 -35.35302734 28.98803711 C-31.20591754 23.6867717 -26.95657596 18.47075905 -22.67773438 13.27539062 C-22.16404297 12.64826172 -21.65035156 12.02113281 -21.12109375 11.375 C-20.67266113 10.83045166 -20.22422852 10.28590332 -19.76220703 9.72485352 C-18.16018194 7.8164146 -18.16018194 7.8164146 -17.34254456 5.91902161 C-13.48792934 -1.29756874 -7.42704554 -0.21589636 0 0 Z " fill="#EE2D0D" transform="translate(443.17578125,173.31640625)"/>
<path d="M0 0 C0.86894394 -0.00029205 1.73788788 -0.00058411 2.63316345 -0.00088501 C5.49008352 0.0005024 8.34673907 0.01603585 11.20361328 0.03173828 C13.19043841 0.0354705 15.17726539 0.03831649 17.16409302 0.04031372 C22.38209148 0.04793369 27.59997783 0.06756815 32.81793213 0.08972168 C38.14699792 0.11021536 43.4760819 0.11932297 48.80517578 0.12939453 C59.25314159 0.15081557 69.70102434 0.18493177 80.14892578 0.22705078 C79.20204466 1.49225166 78.25478655 2.7571704 77.30737305 4.02197266 C76.51617821 5.07862122 76.51617821 5.07862122 75.70899963 6.15661621 C73.53578044 9.04077977 71.31975267 11.88930698 69.08642578 14.72705078 C68.39685791 15.60502319 68.39685791 15.60502319 67.69335938 16.50073242 C63.41225139 21.93180747 59.04880962 27.29507882 54.65258789 32.63330078 C54.13833252 33.26107422 53.62407715 33.88884766 53.09423828 34.53564453 C52.42158936 35.35246704 52.42158936 35.35246704 51.73535156 36.18579102 C50.14578353 38.1096894 50.14578353 38.1096894 49.21228027 39.99629211 C48.01372851 42.08122738 46.94604361 43.62071061 45.14892578 45.22705078 C41.72259599 46.14967319 38.43757911 45.94665017 34.91455078 45.77783203 C32.87549604 45.75436145 30.83643307 45.7315973 28.79736328 45.70947266 C25.59962889 45.63274076 22.40331424 45.53970147 19.20654297 45.42993164 C7.06997344 44.59699334 7.06997344 44.59699334 -4.10571289 48.2409668 C-6.41118808 50.78024345 -8.12658542 53.26981559 -9.85107422 56.22705078 C-10.87866344 57.53129864 -11.92498187 58.82117199 -12.99560547 60.09033203 C-13.88870597 61.23713971 -14.77816321 62.38679595 -15.66357422 63.53955078 C-16.56575018 64.70244139 -17.46809095 65.86520416 -18.37060547 67.02783203 C-18.75321533 67.52452393 -19.1358252 68.02121582 -19.5300293 68.53295898 C-20.18394653 69.37153442 -20.18394653 69.37153442 -20.85107422 70.22705078 C-21.42103622 71.07528412 -21.99099823 71.92351746 -22.57823181 72.79745483 C-24.85107422 75.22705078 -24.85107422 75.22705078 -27.49603271 75.82832336 C-28.49974915 75.81722031 -29.50346558 75.80611725 -30.53759766 75.79467773 C-32.24891876 75.79411125 -32.24891876 75.79411125 -33.99481201 75.79353333 C-35.22097229 75.7677269 -36.44713257 75.74192047 -37.71044922 75.71533203 C-38.96996399 75.70825729 -40.22947876 75.70118256 -41.52716064 75.69389343 C-44.86842778 75.67064954 -48.20797746 75.6257689 -51.54876709 75.57037354 C-54.96058338 75.51913287 -58.37257742 75.49636934 -61.78466797 75.47119141 C-68.47394403 75.41604518 -75.16240999 75.33235813 -81.85107422 75.22705078 C-80.03674454 71.41527047 -77.66445183 68.26124701 -75.03857422 64.97705078 C-74.55646484 64.36861328 -74.07435547 63.76017578 -73.57763672 63.13330078 C-69.32885466 57.78700724 -65.01598539 52.4927382 -60.69848633 47.2019043 C-57.11867169 42.80885783 -53.59143802 38.37891225 -50.10107422 33.91455078 C-48.77061021 32.21893614 -47.43946811 30.52385723 -46.10791016 28.82910156 C-44.89702307 27.28562039 -43.69036967 25.73882069 -42.48388672 24.19189453 C-31.50758892 10.38606668 -18.33846182 -0.1626653 0 0 Z " fill="#ED2D0D" transform="translate(220.85107421875,263.77294921875)"/>
<path d="M0 0 C-3.05781593 4.77461379 -6.45432046 9.13085368 -10.0625 13.5 C-14.2630259 18.62558554 -18.42471846 23.77423687 -22.5 29 C-26.98161405 34.74040225 -31.55957313 40.39694172 -36.1640625 46.0390625 C-39.65530083 50.32451618 -43.09818888 54.64329453 -46.5 59 C-50.9820011 64.74010668 -55.55956557 70.39693246 -60.1640625 76.0390625 C-63.65530083 80.32451618 -67.09818888 84.64329453 -70.5 89 C-74.9820011 94.74010668 -79.55956557 100.39693246 -84.1640625 106.0390625 C-87.65530083 110.32451618 -91.09818888 114.64329453 -94.5 119 C-98.4419512 124.04846382 -102.45034569 129.03753814 -106.5 134 C-111.52205645 140.15614107 -116.47352374 146.36247781 -121.3671875 152.62109375 C-121.76867508 153.11508667 -122.17016266 153.60907959 -122.58381653 154.11804199 C-124.06559673 156.00995855 -124.06559673 156.00995855 -125.31828308 158.26782227 C-127.69214724 162.02123104 -129.47084989 164.5779463 -133.86688232 165.79127502 C-137.4007024 166.04169865 -140.83085193 166.01232863 -144.37109375 165.87890625 C-146.28729271 165.85980446 -146.28729271 165.85980446 -148.24220276 165.84031677 C-151.61959938 165.79858735 -154.99140085 165.71795641 -158.36724854 165.61798096 C-161.8192132 165.52547128 -165.27175923 165.48471641 -168.72460938 165.43945312 C-175.48460518 165.34039978 -182.24197999 165.18993876 -189 165 C-189 164.67 -189 164.34 -189 164 C-188.15928955 164.05349609 -187.3185791 164.10699219 -186.45239258 164.16210938 C-169.53126831 165.70997191 -169.53126831 165.70997191 -154.5 159.86328125 C-151.62847519 156.57824038 -149.38999485 152.94333062 -147.25634766 149.14697266 C-145.31998606 145.83792409 -142.92366846 142.95968445 -140.5 140 C-139.60191674 138.85592927 -138.70610177 137.71007451 -137.8125 136.5625 C-134.21259919 131.98080807 -130.51988256 127.47506737 -126.8359375 122.9609375 C-123.34469917 118.67548382 -119.90181112 114.35670547 -116.5 110 C-112.0179989 104.25989332 -107.44043443 98.60306754 -102.8359375 92.9609375 C-99.34469917 88.67548382 -95.90181112 84.35670547 -92.5 80 C-88.0179989 74.25989332 -83.44043443 68.60306754 -78.8359375 62.9609375 C-75.34469917 58.67548382 -71.90181112 54.35670547 -68.5 50 C-64.55804715 44.95153407 -60.5495608 39.96253972 -56.5 35 C-52.86501714 30.54260829 -49.23833882 26.08047372 -45.68798828 21.55517578 C-44.77428722 20.39756162 -43.8494751 19.2486278 -42.91357422 18.10888672 C-40.60232606 15.25749649 -38.70436255 12.5529627 -37.11328125 9.23828125 C-29.77097083 -4.76990299 -13.64320852 -1.12429405 0 0 Z " fill="#D20000" transform="translate(488,174)"/>
</svg>
