<?xml version="1.0" encoding="UTF-8"?>
<svg version="1.1" xmlns="http://www.w3.org/2000/svg" width="512" height="512">
<path d="M0 0 C7.04853192 5.78377519 13.03104107 12.75573417 14.06933594 22.13452148 C14.14164675 25.20352135 14.10065561 28.24443947 14 31.3125 C13.98195313 32.36888672 13.96390625 33.42527344 13.9453125 34.51367188 C13.89862013 37.0934255 13.83315588 39.67120817 13.75 42.25 C15.28309814 42.24000725 15.28309814 42.24000725 16.84716797 42.22981262 C26.49843246 42.16888944 36.14965772 42.12397362 45.80107117 42.09456348 C50.7624821 42.07893493 55.72373728 42.05774808 60.68505859 42.02368164 C65.47667971 41.99098786 70.2681514 41.97312586 75.05987549 41.96536827 C76.88424022 41.95984272 78.70859716 41.94905273 80.53289795 41.93280983 C83.09632786 41.91090217 85.65914717 41.9080386 88.22265625 41.90942383 C89.34367989 41.89324509 89.34367989 41.89324509 90.48735046 41.8767395 C96.46663563 41.91150057 102.12348657 43.0122305 106.80859375 47.00390625 C107.26363281 47.60074219 107.71867187 48.19757813 108.1875 48.8125 C108.66058594 49.41191406 109.13367188 50.01132813 109.62109375 50.62890625 C111.59878024 53.46883667 111.88094722 55.24595105 111.90821838 58.66653442 C111.92290161 60.05899384 111.92290161 60.05899384 111.93788147 61.47958374 C111.94363693 62.50097443 111.9493924 63.52236511 111.95532227 64.57470703 C111.96522186 65.64789185 111.97512146 66.72107666 111.98532104 67.82678223 C112.01700158 71.38710293 112.04171938 74.94743699 112.06640625 78.5078125 C112.08697012 80.97118484 112.10796643 83.4345536 112.12937927 85.8979187 C112.18465853 92.39163321 112.23404196 98.88537988 112.28222656 105.37915039 C112.3323989 112.00149406 112.38810721 118.62379086 112.44335938 125.24609375 C112.55101253 138.24735582 112.65244156 151.24865854 112.75 164.25 C117.04 165.9 121.33 167.55 125.75 169.25 C125.811875 167.31125 125.87375 165.3725 125.9375 163.375 C126.72133225 153.63005851 130.03047931 147.11320879 137.39453125 140.72265625 C145.59092631 135.59821025 153.74233107 135.79124145 163.08984375 135.81640625 C164.58142838 135.8118368 166.07301092 135.80652897 167.56459045 135.80052185 C170.68043609 135.79162193 173.79602499 135.79397798 176.91186523 135.80395508 C180.88391818 135.81544117 184.85508158 135.7952238 188.82701778 135.76603794 C191.90448027 135.74759867 194.9817326 135.74798364 198.05923653 135.75367546 C199.52271332 135.75382773 200.98620522 135.74786205 202.44962883 135.73538399 C213.10580629 135.65730695 222.08713599 136.7199152 230.07362461 144.3853693 C237.37476834 152.5064243 237.4627982 161.6866806 237.36523438 172.03759766 C237.36874137 173.61228533 237.37440645 175.18696943 237.38204956 176.76164246 C237.39622195 181.01169036 237.3793122 185.2610854 237.35576439 189.51107073 C237.33556435 193.97160044 237.34153957 198.43210545 237.34387207 202.89266968 C237.34381861 210.37907599 237.3241249 217.86522898 237.29199219 225.3515625 C237.25507724 233.99381798 237.24632153 242.63574224 237.2532897 251.27806628 C237.25960443 259.6117775 237.24882419 267.94537577 237.22932434 276.27906418 C237.22117229 279.81714875 237.21843672 283.35517542 237.22001648 286.89326859 C237.22089831 291.06145741 237.20659948 295.22933365 237.18078995 299.39743996 C237.17365602 300.92277701 237.1715311 302.44814739 237.17490768 303.97349739 C237.19321407 314.19623576 236.83601777 322.75102816 229.62890625 330.64453125 C223.21795511 336.12249574 215.86000644 338.35269518 207.59545898 338.42700195 C206.34993759 338.43983719 205.1044162 338.45267242 203.82115173 338.46589661 C202.46280316 338.47406841 201.10445003 338.4815113 199.74609375 338.48828125 C198.71306468 338.49439454 198.71306468 338.49439454 197.65916634 338.50063133 C194.0090274 338.5214662 190.35892569 338.53577518 186.70874023 338.54516602 C182.96551828 338.55618411 179.22289839 338.59053695 175.47988796 338.63033772 C172.57909659 338.6566777 169.67844442 338.66487341 166.77754402 338.66844749 C165.39942452 338.67327416 164.02130956 338.68477415 162.64330864 338.70348549 C152.84548598 338.82818479 143.47387576 338.07429608 135.375 332 C129.84526218 326.20694134 126.59210849 320.67077812 126.6875 312.5625 C126.69652344 311.56863281 126.70554687 310.57476562 126.71484375 309.55078125 C126.72644531 308.79152344 126.73804688 308.03226562 126.75 307.25 C126.1266124 307.42317245 125.50322479 307.59634491 124.86094666 307.77476501 C118.35706096 309.58057544 111.85151014 311.38028904 105.3449707 313.17651367 C102.91875912 313.8471593 100.49297254 314.51934451 98.06762695 315.19311523 C94.57614675 316.16277206 91.08316235 317.126834 87.58984375 318.08984375 C86.51041 318.39091537 85.43097626 318.691987 84.3188324 319.00218201 C83.29830276 319.282397 82.27777313 319.562612 81.22631836 319.85131836 C80.33585312 320.09780624 79.44538788 320.34429413 78.52793884 320.59825134 C72.79099446 321.94422979 67.20960625 322.37668566 61.32751465 322.39044189 C60.61341195 322.39341302 59.89930924 322.39638414 59.16356707 322.3994453 C56.78806903 322.40806627 54.41262177 322.40963493 52.03710938 322.41113281 C50.32644546 322.4157658 48.61578256 322.4207911 46.90512085 322.42617798 C42.26831282 322.43926071 37.63151925 322.44573926 32.99469566 322.45018864 C30.09176314 322.45312701 27.18883449 322.45723332 24.28590393 322.46169281 C15.18602629 322.47535903 6.08615761 322.48502906 -3.01372957 322.4888947 C-13.48544012 322.49336858 -23.95701969 322.51088903 -34.42869043 322.5398953 C-42.54365122 322.56158575 -50.65857537 322.57160295 -58.77356482 322.57293582 C-63.61026907 322.5739789 -68.44685007 322.57977975 -73.28352356 322.59775543 C-77.84067535 322.61436319 -82.39761292 322.6163307 -86.95478439 322.60761642 C-88.61587985 322.6068527 -90.27698745 322.61109958 -91.93805313 322.62107468 C-106.33441834 322.7023708 -119.25884691 320.29887698 -133.12109375 316.33203125 C-134.05429947 316.06992355 -134.98750519 315.80781586 -135.94898987 315.5377655 C-138.86334181 314.71793895 -141.77543268 313.89040033 -144.6875 313.0625 C-146.69060916 312.49752881 -148.69386351 311.93307211 -150.69726562 311.36914062 C-155.54986822 310.00200855 -160.40046349 308.62796677 -165.25 307.25 C-165.23694824 307.92329346 -165.22389648 308.59658691 -165.21044922 309.2902832 C-165.20029785 310.18062256 -165.19014648 311.07096191 -165.1796875 311.98828125 C-165.16663574 312.86782471 -165.15358398 313.74736816 -165.14013672 314.65356445 C-165.40728075 320.9670685 -168.16147697 326.03399859 -172.37109375 330.64453125 C-178.78204489 336.12249574 -186.13999356 338.35269518 -194.40454102 338.42700195 C-195.65006241 338.43983719 -196.8955838 338.45267242 -198.17884827 338.46589661 C-199.53719684 338.47406841 -200.89554997 338.4815113 -202.25390625 338.48828125 C-203.28693532 338.49439454 -203.28693532 338.49439454 -204.34083366 338.50063133 C-207.9909726 338.5214662 -211.64107431 338.53577518 -215.29125977 338.54516602 C-219.03448172 338.55618411 -222.77710161 338.59053695 -226.52011204 338.63033772 C-229.42090341 338.6566777 -232.32155558 338.66487341 -235.22245598 338.66844749 C-236.60057548 338.67327416 -237.97869044 338.68477415 -239.35669136 338.70348549 C-249.15451402 338.82818479 -258.52612424 338.07429608 -266.625 332 C-272.45929603 325.88788035 -275.36373669 320.3034666 -275.40390015 311.80638123 C-275.4082824 311.14933813 -275.41266465 310.49229503 -275.4171797 309.81534153 C-275.43055549 307.60923194 -275.43674388 305.40316228 -275.44287109 303.19702148 C-275.45077324 301.61676351 -275.45904226 300.03650733 -275.46765137 298.45625305 C-275.49386595 293.26121746 -275.50918185 288.06617386 -275.5234375 282.87109375 C-275.52879806 281.08115191 -275.53417557 279.29121012 -275.53956985 277.50126839 C-275.56120079 270.05258476 -275.57993531 262.60390328 -275.59119225 255.15519619 C-275.6074161 244.49070679 -275.64055329 233.82658263 -275.69759309 223.16223091 C-275.73635234 215.65889151 -275.75583221 208.15564953 -275.76111281 200.65221268 C-275.76475906 196.17375712 -275.77670205 191.69569116 -275.80921555 187.21734428 C-275.83940053 182.99912701 -275.8455712 178.7815329 -275.83383179 174.56323051 C-275.8336119 173.02096223 -275.84184658 171.47866416 -275.85948563 169.93649673 C-275.96677768 160.00991979 -275.27483129 151.72158262 -268.28938866 144.1150732 C-259.71517207 135.76918642 -250.20889498 135.78598849 -238.91015625 135.81640625 C-237.41857162 135.8118368 -235.92698908 135.80652897 -234.43540955 135.80052185 C-231.31956391 135.79162193 -228.20397501 135.79397798 -225.08813477 135.80395508 C-221.11608182 135.81544117 -217.14491842 135.7952238 -213.17298222 135.76603794 C-210.09551973 135.74759867 -207.0182674 135.74798364 -203.94076347 135.75367546 C-202.47728668 135.75382773 -201.01379478 135.74786205 -199.55037117 135.73538399 C-188.75144948 135.65626107 -179.98045915 136.83159508 -171.8203125 144.44140625 C-165.33862362 151.90663499 -164.55678527 159.63739482 -164.25 169.25 C-157.815 166.775 -157.815 166.775 -151.25 164.25 C-151.24635437 162.88523529 -151.24270874 161.52047058 -151.23895264 160.11434937 C-151.20201513 147.25416414 -151.14425571 134.39421864 -151.06609726 121.53421593 C-151.02658443 114.92270284 -150.99441441 108.31132371 -150.97900391 101.69970703 C-150.96386272 95.31938877 -150.92946148 88.93943869 -150.88169098 82.55928421 C-150.86685113 80.12486597 -150.8589575 77.69039518 -150.85811615 75.25593185 C-150.8557527 71.84649121 -150.82872103 68.43807317 -150.79589844 65.02880859 C-150.80344398 63.51829422 -150.80344398 63.51829422 -150.81114197 61.9772644 C-150.72320909 56.07535484 -150.12645509 52.77297855 -146.25 48.25 C-140.4825084 42.78606059 -134.66610787 41.94941408 -126.94970703 42.02294922 C-126.13928452 42.02265717 -125.328862 42.02236511 -124.49388123 42.02206421 C-121.83174704 42.02345063 -119.16989742 42.03897926 -116.5078125 42.0546875 C-114.65550896 42.05842008 -112.80320344 42.06126589 -110.95089722 42.06326294 C-106.08799743 42.07088012 -101.22521809 42.09051213 -96.36236572 42.1126709 C-91.39523955 42.13317063 -86.42809383 42.14227347 -81.4609375 42.15234375 C-71.72390556 42.17375985 -61.98696282 42.20787263 -52.25 42.25 C-52.27094727 41.60039307 -52.29189453 40.95078613 -52.31347656 40.28149414 C-52.39745583 37.29199167 -52.448916 34.30273842 -52.5 31.3125 C-52.53351563 30.29091797 -52.56703125 29.26933594 -52.6015625 28.21679688 C-52.72782958 18.33639813 -49.97290722 11.31915388 -43.234375 4.10546875 C-31.22183204 -7.12673185 -13.93882736 -9.91087725 0 0 Z M34.75 89.25 C34.75 96.18 34.75 103.11 34.75 110.25 C37.06 110.353125 39.37 110.45625 41.75 110.5625 C55.03805344 111.39041165 55.03805344 111.39041165 59.11328125 115.6875 C61.63362982 119.42904839 62.53452361 123.30950552 62.3359375 127.79296875 C61.1099998 132.93373417 57.745393 136.99155928 54.75 141.25 C53.05746653 143.9008016 51.39884012 146.57184071 49.75 149.25 C50.6318396 149.25616333 50.6318396 149.25616333 51.53149414 149.26245117 C62.69555844 149.39853192 72.80036149 149.81748546 83.265625 153.8984375 C87.6690065 155.60647561 92.22614247 156.89284274 96.75 158.25 C96.75 137.79 96.75 117.33 96.75 96.25 C84.09530069 96.15867241 84.09530069 96.15867241 71.44042969 96.13232422 C69.85087494 96.10879514 68.26135059 96.083065 66.671875 96.0546875 C65.43945068 96.06834351 65.43945068 96.06834351 64.18212891 96.08227539 C61.88133334 96.02535284 59.94973165 95.92977944 57.75 95.25 C55.4765625 92.23632812 55.4765625 92.23632812 53.75 89.25 C51.56079492 88.43735798 51.56079492 88.43735798 49.203125 88.6640625 C48.44161133 88.67904785 47.68009766 88.6940332 46.89550781 88.70947266 C45.93999023 88.76409668 44.98447266 88.8187207 44 88.875 C40.9475 88.99875 37.895 89.1225 34.75 89.25 Z M-135.25 96.25 C-135.25 116.71 -135.25 137.17 -135.25 158.25 C-129.38873246 156.49161974 -124.10498286 154.81067513 -118.5 152.625 C-108.77754814 149.09653364 -98.47891633 149.32149167 -88.25 149.25 C-88.92095703 148.198125 -88.92095703 148.198125 -89.60546875 147.125 C-90.86262205 145.15215388 -92.11361016 143.17536962 -93.359375 141.1953125 C-94.47603965 139.45571509 -95.62153443 137.7331625 -96.828125 136.0546875 C-99.78832418 131.85256568 -101.00980825 128.61676869 -100.66015625 123.42578125 C-99.96590846 119.74296201 -98.84732614 116.98872785 -96.25 114.25 C-89.22780447 110.27517234 -81.14199797 110.54800513 -73.25 110.25 C-73.25 105.63 -73.25 101.01 -73.25 96.25 C-93.71 96.25 -114.17 96.25 -135.25 96.25 Z " fill="#010101" transform="translate(275.25,89.75)"/>
<path d="M0 0 C0.89871826 0.00424484 1.79743652 0.00848969 2.72338867 0.01286316 C5.56591012 0.02952291 8.40769645 0.06715043 11.25 0.10546875 C13.18879177 0.12053204 15.12759477 0.13421756 17.06640625 0.14648438 C21.79454979 0.17938465 26.52215069 0.2310776 31.25 0.29296875 C33.77679278 10.17814033 34.66935698 19.14641833 34.5 29.35546875 C34.49484375 30.63357422 34.4896875 31.91167969 34.484375 33.22851562 C34.39962302 43.3298918 34.39962302 43.3298918 33.25 48.29296875 C18.28798551 48.8162287 4.43740937 49.06834137 -9.89453125 44.38671875 C-13.57731219 43.21737028 -16.87353685 43.01538282 -20.75 43.29296875 C-22.83333333 44.20963542 -22.83333333 44.20963542 -23.75 46.29296875 C-24.35939296 50.88241737 -24.35939296 50.88241737 -22.51855469 54.91357422 C-18.93674913 57.70722433 -14.34060452 58.35213707 -10 59.41796875 C-8.91920166 59.68367676 -7.83840332 59.94938477 -6.72485352 60.22314453 C7.11488868 63.31906934 21.12855147 63.31267768 35.25 63.29296875 C35.72308594 64.34355469 36.19617188 65.39414062 36.68359375 66.4765625 C43.23141131 80.57141575 50.68233921 88.89524911 65.25 95.29296875 C77.36567592 99.40927994 90.46523237 98.02201297 102.12109375 93.07421875 C115.49519317 86.39644373 121.34042101 76.41642072 127.25 63.29296875 C128.37583496 63.31822632 128.37583496 63.31822632 129.52441406 63.34399414 C150.1176695 63.6402665 168.35953206 60.45565745 188.15678406 54.96084595 C194.04607428 53.32687743 199.96627224 51.90976613 205.9375 50.60546875 C207.64083702 50.22621138 209.34396454 49.84601182 211.046875 49.46484375 C211.88541016 49.27728516 212.72394531 49.08972656 213.58789062 48.89648438 C218.62992787 47.75342531 223.65920864 46.55735115 228.6875 45.35546875 C229.72406738 45.10821045 230.76063477 44.86095215 231.82861328 44.60620117 C237.12633131 43.32987643 242.40315543 41.99897151 247.6640625 40.578125 C248.69732666 40.30025146 249.73059082 40.02237793 250.79516602 39.73608398 C252.74610894 39.20710836 254.69472498 38.66944072 256.64038086 38.12133789 C257.52346924 37.8814917 258.40655762 37.64164551 259.31640625 37.39453125 C260.07896729 37.18135254 260.84152832 36.96817383 261.62719727 36.74853516 C264.25 36.29296875 264.25 36.29296875 272.25 36.29296875 C272.25 51.47296875 272.25 66.65296875 272.25 82.29296875 C265.50218914 85.66687418 265.50218914 85.66687418 261.484375 86.72265625 C260.16324707 87.07565796 260.16324707 87.07565796 258.81542969 87.43579102 C257.88633789 87.67740967 256.95724609 87.91902832 256 88.16796875 C254.0207266 88.69491177 252.04156133 89.22226109 250.0625 89.75 C249.08023437 90.00990723 248.09796875 90.26981445 247.0859375 90.53759766 C243.04866141 91.61295339 239.02372621 92.73065234 235 93.85546875 C233.52867741 94.26573827 232.05732342 94.67589518 230.5859375 95.0859375 C229.50844238 95.38636963 229.50844238 95.38636963 228.40917969 95.69287109 C226.26597557 96.28852868 224.12149748 96.87935832 221.9765625 97.46875 C212.26187127 100.1434129 202.58281872 102.92615161 192.92333984 105.79443359 C191.04893682 106.34688588 189.1718531 106.89035071 187.29180336 107.42327023 C185.41824594 107.95894921 183.54961149 108.51269604 181.6903286 109.095994 C172.58105227 111.72840989 163.69486977 111.72437802 154.31103516 111.69702148 C152.52904332 111.70273471 150.74705514 111.70970263 148.96507263 111.71781921 C144.1570919 111.73566107 139.34929457 111.73459916 134.54129076 111.72887683 C130.51327799 111.72577175 126.48529979 111.73189207 122.45729196 111.73791558 C112.9474098 111.75192991 103.43761753 111.75042548 93.92773438 111.73901367 C84.14833005 111.72753707 74.36920013 111.74160756 64.58983195 111.76841015 C56.16394368 111.79063037 47.73814116 111.79719027 39.3122257 111.79133373 C34.29284741 111.78797787 29.27364492 111.79028745 24.25429153 111.80758476 C19.53120505 111.82315288 14.80852223 111.81898995 10.08545113 111.80027962 C8.36266082 111.79662079 6.63983994 111.79962215 4.91707802 111.81016541 C-5.74685479 111.8703927 -14.58582393 110.80593445 -24.75 107.29296875 C-26.17351858 106.86096228 -27.59898874 106.4352676 -29.02734375 106.01953125 C-30.23519531 105.65601563 -31.44304687 105.2925 -32.6875 104.91796875 C-40.46481118 102.60468924 -48.30277934 100.55368425 -56.15869141 98.52612305 C-64.31337494 96.41878613 -72.42921375 94.19206122 -80.53662109 91.91064453 C-82.88246087 91.25600361 -85.23172995 90.61499134 -87.58203125 89.9765625 C-88.38406982 89.75750244 -89.1861084 89.53844238 -90.01245117 89.31274414 C-91.52876475 88.89891918 -93.0457981 88.48771748 -94.5637207 88.07983398 C-107.51425869 84.52871006 -107.51425869 84.52871006 -109.75 82.29296875 C-109.84295815 80.85007088 -109.86746513 79.4026709 -109.86352539 77.95678711 C-109.86344986 77.03590805 -109.86337433 76.11502899 -109.86329651 75.16624451 C-109.85813522 74.16521194 -109.85297394 73.16417938 -109.84765625 72.1328125 C-109.8462413 71.11320938 -109.84482635 70.09360626 -109.84336853 69.04310608 C-109.83775097 65.77219768 -109.8251955 62.50135662 -109.8125 59.23046875 C-109.80748726 57.01888119 -109.80292396 54.80729257 -109.79882812 52.59570312 C-109.78777584 47.16143518 -109.77102063 41.72720678 -109.75 36.29296875 C-104.75420749 36.17307512 -100.54720352 36.35050681 -95.6953125 37.68359375 C-94.59429199 37.97935303 -93.49327148 38.2751123 -92.35888672 38.57983398 C-90.63436279 39.05658569 -90.63436279 39.05658569 -88.875 39.54296875 C-86.46410113 40.18699384 -84.05263988 40.82891728 -81.640625 41.46875 C-80.46693359 41.78150879 -79.29324219 42.09426758 -78.08398438 42.41650391 C-73.61286147 43.59190895 -69.13108761 44.69776243 -64.625 45.73046875 C-63.94711426 45.89385742 -63.26922852 46.05724609 -62.57080078 46.22558594 C-57.69251692 47.32048694 -52.73398633 47.85350706 -47.75 47.29296875 C-45.44403953 45.83008318 -45.44403953 45.83008318 -44.75 43.29296875 C-44.58551119 40.19647999 -44.58551119 40.19647999 -45.75 37.29296875 C-49.60088269 34.40659286 -53.38674506 33.52314028 -58.0625 32.60546875 C-59.31675781 32.35410156 -60.57101563 32.10273438 -61.86328125 31.84375 C-62.81589844 31.66199219 -63.76851562 31.48023438 -64.75 31.29296875 C-64.75 27.99296875 -64.75 24.69296875 -64.75 21.29296875 C-58.20310082 18.78406201 -51.6560587 16.27552874 -45.10888672 13.76733398 C-42.88391295 12.91489637 -40.65897755 12.06235862 -38.43408203 11.2097168 C-35.22699014 9.98069031 -32.01975822 8.75202987 -28.8125 7.5234375 C-27.82572266 7.14519333 -26.83894531 6.76694916 -25.82226562 6.37724304 C-23.96699649 5.66670492 -22.11013362 4.96030979 -20.25146484 4.25871277 C-18.69867927 3.65922668 -17.15484525 3.03521982 -15.62744141 2.37373352 C-10.35065876 0.14703611 -5.69018041 -0.10298348 0 0 Z " fill="#FD7F85" transform="translate(174.75,284.70703125)"/>
<path d="M0 0 C42.9 0 85.8 0 130 0 C128.43012756 3.9246811 127.49808963 5.85576693 125.0625 9 C112.42251878 26.74357196 104.12421454 47.6620671 100 69 C99.81614746 69.9369873 99.63229492 70.87397461 99.44287109 71.83935547 C97.41709922 83.73789525 97.91387387 95.61918013 98.19189453 107.64306641 C98.51316368 122.54540131 98.12275068 132.60354691 87.37109375 143.8671875 C84.17062624 146.74602648 81.03601848 148.56358336 77 150 C75.59041016 150.52980469 75.59041016 150.52980469 74.15234375 151.0703125 C66.33745677 153.37507471 57.81893524 152.87379066 50.41796875 149.45703125 C42.88785733 144.91950046 37.09478873 139.27519594 34 131 C33.65702881 130.32710937 33.31405762 129.65421875 32.96069336 128.9609375 C31.61908749 124.8259957 31.81129091 121.018891 31.91015625 116.703125 C31.93061412 114.83724258 31.9507867 112.97135702 31.97070312 111.10546875 C32.01374462 108.19664201 32.06178527 105.2880262 32.11645508 102.37939453 C32.33466913 89.8562726 31.72886543 78.23784142 29 66 C28.80623779 65.07896484 28.61247559 64.15792969 28.4128418 63.20898438 C23.76590764 42.07342328 14.67233837 20.65106659 1.14111328 3.65307617 C0 2 0 2 0 0 Z " fill="#FC7E84" transform="translate(191,216)"/>
<path d="M0 0 C1.19829437 -0.01268417 2.39658875 -0.02536835 3.63119507 -0.03843689 C5.56099716 -0.03403343 5.56099716 -0.03403343 7.52978516 -0.02954102 C8.87350731 -0.03410667 10.21722714 -0.03941338 11.5609436 -0.04542542 C14.37357076 -0.05434474 17.18591382 -0.05194807 19.99853516 -0.04199219 C23.58864577 -0.03051764 27.17777054 -0.05069502 30.76775169 -0.07990932 C33.5423294 -0.09833077 36.31667358 -0.09796696 39.09129715 -0.0922718 C41.05376618 -0.09204546 43.01621342 -0.10889373 44.97860718 -0.12608337 C51.79265384 -0.0730182 56.54783877 0.04121288 61.94384766 4.40405273 C64.79284218 8.27285296 65.31997411 11.01499015 65.32479858 15.78015137 C65.33325806 17.06716446 65.34171753 18.35417755 65.35043335 19.68019104 C65.34460092 21.09921392 65.33845645 22.51823554 65.33203125 23.93725586 C65.33609801 25.43725466 65.34144048 26.93725046 65.34796143 28.4372406 C65.36162852 32.50540714 65.35633894 36.57334524 65.34682417 40.64151573 C65.33922442 44.90062446 65.34627406 49.15971374 65.35098267 53.41882324 C65.3564393 60.57099923 65.34925104 67.72308226 65.33496094 74.87524414 C65.31863458 83.1419706 65.32392315 91.40847509 65.34044015 99.67519617 C65.35405766 106.77512336 65.35597339 113.87498376 65.34812415 120.9749198 C65.34344908 125.21440106 65.34281819 129.45377802 65.35273361 133.69325256 C65.36140487 137.67912744 65.35537861 141.66471636 65.33805084 145.65056038 C65.33408683 147.11266162 65.33521862 148.57478696 65.34183884 150.03687859 C65.35004691 152.03389497 65.3379247 154.03096399 65.32479858 156.0279541 C65.32366751 157.14512566 65.32253643 158.26229721 65.32137108 159.41332245 C64.74930078 163.94524778 62.83882785 166.51245413 59.65405273 169.68519592 C56.36704673 171.7698694 54.45222081 171.90518253 50.58056641 171.90576172 C49.31575439 171.91514267 48.05094238 171.92452362 46.74780273 171.93418884 C45.37564413 171.92371015 44.00349208 171.91234109 42.63134766 171.90014648 C41.21557542 171.90030157 39.79980275 171.90179216 38.3840332 171.90455627 C35.42168328 171.9059384 32.45981863 171.89341436 29.49755859 171.87060547 C25.70783538 171.8422207 21.91891798 171.8449603 18.12913513 171.85769558 C15.20708379 171.86466361 12.28521742 171.85685079 9.3631897 171.84443855 C7.96620392 171.83993493 6.56919821 171.83957772 5.17221069 171.84350395 C3.21715001 171.84642686 1.26209347 171.82771084 -0.69287109 171.80810547 C-1.80364014 171.80270248 -2.91440918 171.7972995 -4.05883789 171.79173279 C-7.45009107 171.35309973 -9.31578876 170.41654027 -12.05615234 168.40405273 C-16.10763444 162.95550785 -15.33904643 156.87918403 -15.05615234 150.40405273 C-13.79802734 150.10112305 -12.53990234 149.79819336 -11.24365234 149.48608398 C-2.83111635 147.43887672 5.57445406 145.3492908 13.88134766 142.90405273 C15.12787109 142.54311523 16.37439453 142.18217773 17.65869141 141.81030273 C22.31623619 139.81658558 24.7915299 137.14920558 27.55493164 132.96411133 C29.54024433 127.87537348 29.41158849 123.14243639 29.41259766 117.72436523 C29.42021118 116.59763397 29.42782471 115.47090271 29.43566895 114.31002808 C29.4464533 111.93139863 29.44932985 109.55272189 29.44482422 107.17407227 C29.44385276 103.54810007 29.48547966 99.9242505 29.52978516 96.29858398 C29.53499321 93.98218213 29.53768033 91.66577295 29.53759766 89.34936523 C29.55399292 88.27204132 29.57038818 87.19471741 29.58728027 86.08474731 C29.52543868 79.29870298 28.47347639 74.60206065 23.94384766 69.40405273 C18.78142908 65.47078144 13.15321417 65.72989294 6.94384766 66.40405273 C1.54045158 67.40210166 -3.79827185 68.6909691 -9.12426758 70.03686523 C-11.05615234 70.40405273 -11.05615234 70.40405273 -15.05615234 70.40405273 C-15.14900826 62.55435881 -15.21999591 54.70479458 -15.26340103 46.85468864 C-15.28423806 43.20916154 -15.31248318 39.56401137 -15.35791016 35.91870117 C-15.40150878 32.39790286 -15.42531866 28.87746613 -15.43566132 25.35641861 C-15.4466024 23.36557326 -15.47780633 21.37487251 -15.50933838 19.38424683 C-15.51217647 7.9161813 -15.51217647 7.9161813 -11.05615234 3.40405273 C-7.25785703 0.68753678 -4.64523909 0.02387022 0 0 Z " fill="#645D66" transform="translate(432.05615234375,240.595947265625)"/>
<path d="M0 0 C1.19829437 -0.01268417 2.39658875 -0.02536835 3.63119507 -0.03843689 C5.56099716 -0.03403343 5.56099716 -0.03403343 7.52978516 -0.02954102 C8.87350731 -0.03410667 10.21722714 -0.03941338 11.5609436 -0.04542542 C14.37357076 -0.05434474 17.18591382 -0.05194807 19.99853516 -0.04199219 C23.58864577 -0.03051764 27.17777054 -0.05069502 30.76775169 -0.07990932 C33.5423294 -0.09833077 36.31667358 -0.09796696 39.09129715 -0.0922718 C41.05376618 -0.09204546 43.01621342 -0.10889373 44.97860718 -0.12608337 C51.79265384 -0.0730182 56.54783877 0.04121288 61.94384766 4.40405273 C64.74145218 8.21934082 65.313586 10.87617967 65.28442383 15.57128906 C65.28419724 16.79217728 65.28397064 18.01306549 65.28373718 19.27095032 C65.26825333 20.57944443 65.25276947 21.88793854 65.23681641 23.23608398 C65.23121649 24.59656811 65.22694826 25.95705831 65.22395325 27.31755066 C65.21253542 30.8867584 65.1830953 34.45559602 65.14984131 38.0246582 C65.11907391 41.67125442 65.10543372 45.31791082 65.09033203 48.96459961 C65.05822214 56.11123478 65.00706337 63.25761951 64.94384766 70.40405273 C59.91078185 69.80201913 55.12853127 69.04047235 50.19384766 67.84155273 C39.40698404 65.41909433 39.40698404 65.41909433 28.74853516 67.31811523 C24.62527606 69.9921954 22.77263711 72.79858025 20.94384766 77.40405273 C20.49084186 81.29697227 20.4996232 85.1678113 20.51025391 89.08374023 C20.50501205 90.2104715 20.4997702 91.33720276 20.49436951 92.49807739 C20.48795854 94.87672097 20.48927427 97.25539628 20.49780273 99.6340332 C20.50630246 103.25977506 20.47755235 106.88393551 20.44580078 110.50952148 C20.44418829 112.82592726 20.44476722 115.14233582 20.44775391 117.45874023 C20.43651993 118.53606415 20.42528595 119.61338806 20.41371155 120.72335815 C20.47190984 127.05819413 21.11324891 132.18921594 24.94384766 137.40405273 C31.01917285 142.14677935 38.73951785 143.58408471 46.06884766 145.59155273 C47.96183594 146.12425781 47.96183594 146.12425781 49.89306641 146.66772461 C57.36559688 148.75663639 57.36559688 148.75663639 64.94384766 150.40405273 C65.02545513 152.29915972 65.08331225 154.19529777 65.13134766 156.09155273 C65.18355469 157.67516602 65.18355469 157.67516602 65.23681641 159.29077148 C64.79795831 163.95437024 63.07041059 166.32783712 59.72900391 169.51991272 C56.38300924 171.78345626 54.58850938 171.90516214 50.58056641 171.90576172 C49.31575439 171.91514267 48.05094238 171.92452362 46.74780273 171.93418884 C45.37564413 171.92371015 44.00349208 171.91234109 42.63134766 171.90014648 C41.21557542 171.90030157 39.79980275 171.90179216 38.3840332 171.90455627 C35.42168328 171.9059384 32.45981863 171.89341436 29.49755859 171.87060547 C25.70783538 171.8422207 21.91891798 171.8449603 18.12913513 171.85769558 C15.20708379 171.86466361 12.28521742 171.85685079 9.3631897 171.84443855 C7.96620392 171.83993493 6.56919821 171.83957772 5.17221069 171.84350395 C3.21715001 171.84642686 1.26209347 171.82771084 -0.69287109 171.80810547 C-1.80364014 171.80270248 -2.91440918 171.7972995 -4.05883789 171.79173279 C-7.55271676 171.33982587 -9.31643133 170.61725963 -12.05615234 168.40405273 C-14.63087818 164.09396343 -15.43294816 160.90863233 -15.4438324 155.91442871 C-15.45373703 154.62748611 -15.46364166 153.34054352 -15.47384644 152.01460266 C-15.46960893 150.6007986 -15.46505112 149.18699547 -15.46020508 147.77319336 C-15.46591132 146.27466829 -15.47287657 144.77614757 -15.48100281 143.27763367 C-15.49891985 139.21773535 -15.4977688 135.15805332 -15.49206042 131.09812737 C-15.48896694 127.705903 -15.49506269 124.31372009 -15.50109917 120.92150164 C-15.51513755 112.91841708 -15.5135884 104.9154393 -15.50219727 96.91235352 C-15.49071206 88.66091632 -15.50479992 80.40980399 -15.53159374 72.1584096 C-15.5537547 65.06778441 -15.56038737 57.97726118 -15.55451733 50.88660383 C-15.55114804 46.65432929 -15.55356105 42.42226306 -15.57076836 38.1900177 C-15.58624221 34.2106315 -15.58227745 30.2317266 -15.56346321 26.25235939 C-15.55977874 24.79389856 -15.56288176 23.33540203 -15.573349 21.87697411 C-15.58656781 19.88257834 -15.5725978 17.8880581 -15.55735779 15.89367676 C-15.55704386 14.22125034 -15.55704386 14.22125034 -15.55672359 12.51503754 C-14.7835494 7.70986111 -12.48719621 4.52025738 -8.68466187 1.55430603 C-5.60119164 0.20495889 -3.3617348 0.01727475 0 0 Z " fill="#645D66" transform="translate(30.05615234375,240.595947265625)"/>
<path d="M0 0 C0 15.18 0 30.36 0 46 C-6.74781086 49.37390543 -6.74781086 49.37390543 -10.765625 50.4296875 C-11.64637695 50.66502197 -12.52712891 50.90035645 -13.43457031 51.14282227 C-14.82820801 51.50525024 -14.82820801 51.50525024 -16.25 51.875 C-18.2292734 52.40194302 -20.20843867 52.92929234 -22.1875 53.45703125 C-23.16976562 53.71693848 -24.15203125 53.9768457 -25.1640625 54.24462891 C-29.20133859 55.31998464 -33.22627379 56.43768359 -37.25 57.5625 C-38.72132259 57.97276952 -40.19267658 58.38292643 -41.6640625 58.79296875 C-42.74155762 59.09340088 -42.74155762 59.09340088 -43.84082031 59.39990234 C-45.98402443 59.99555993 -48.12850252 60.58638957 -50.2734375 61.17578125 C-59.98812873 63.85044415 -69.66718128 66.63318286 -79.32666016 69.50146484 C-82.21295401 70.35215684 -85.10574743 71.17682195 -88 72 C-88.88901316 72.2640778 -89.77802631 72.52815559 -90.69397926 72.80023575 C-98.57813635 74.98702723 -105.96363761 75.46163343 -114.11865234 75.48339844 C-115.48999188 75.49732461 -116.86132011 75.512404 -118.2326355 75.52853394 C-121.91815715 75.56746531 -125.60351625 75.58714635 -129.2892108 75.60056591 C-131.59628768 75.6094147 -133.90332174 75.6217379 -136.21037674 75.63507843 C-143.44304228 75.67595275 -150.67560797 75.70504019 -157.90838087 75.7166841 C-166.23449316 75.73016763 -174.5591381 75.78306002 -182.88480413 75.86968589 C-189.34286634 75.93453587 -195.80051501 75.96479579 -202.25889933 75.96880746 C-206.10816869 75.97194692 -209.95604917 75.98956484 -213.8049736 76.0432663 C-217.41894496 76.09272869 -221.030483 76.09917623 -224.64467239 76.07284927 C-226.59736098 76.06944127 -228.54996911 76.1105679 -230.50219727 76.15310669 C-238.90141456 76.03305274 -238.90141456 76.03305274 -242.09721756 73.02788544 C-243.64930976 70.74031626 -244.86465968 68.5162642 -246 66 C-246.53109375 65.03191406 -247.0621875 64.06382812 -247.609375 63.06640625 C-252.78836438 51.69746038 -255.08833568 39.35334272 -252 27 C-247.05 27 -242.1 27 -237 27 C-236.52691406 28.05058594 -236.05382812 29.10117187 -235.56640625 30.18359375 C-229.01858869 44.278447 -221.56766079 52.60228036 -207 59 C-194.88432408 63.11631119 -181.78476763 61.72904422 -170.12890625 56.78125 C-156.75480683 50.10347498 -150.90957899 40.12345197 -145 27 C-143.87416504 27.02525757 -143.87416504 27.02525757 -142.72558594 27.05102539 C-122.1323305 27.34729775 -103.89046794 24.1626887 -84.09321594 18.6678772 C-78.20392572 17.03390868 -72.28372776 15.61679738 -66.3125 14.3125 C-64.60916298 13.93324263 -62.90603546 13.55304307 -61.203125 13.171875 C-60.36458984 12.98431641 -59.52605469 12.79675781 -58.66210938 12.60351562 C-53.62007213 11.46045656 -48.59079136 10.2643824 -43.5625 9.0625 C-42.52593262 8.8152417 -41.48936523 8.5679834 -40.42138672 8.31323242 C-35.12366869 7.03690768 -29.84684457 5.70600276 -24.5859375 4.28515625 C-23.55267334 4.00728271 -22.51940918 3.72940918 -21.45483398 3.44311523 C-19.50389106 2.91413961 -17.55527502 2.37647197 -15.60961914 1.82836914 C-14.28498657 1.46859985 -14.28498657 1.46859985 -12.93359375 1.1015625 C-12.17103271 0.88838379 -11.40847168 0.67520508 -10.62280273 0.45556641 C-8 0 -8 0 0 0 Z " fill="#FD7F85" transform="translate(447,321)"/>
<path d="M0 0 C7.8324229 -0.09292643 15.6647152 -0.1638791 23.49755192 -0.20724869 C27.13520425 -0.22807046 30.77247776 -0.25628732 34.40991211 -0.30175781 C37.92423125 -0.34541134 41.43818741 -0.36917776 44.95275688 -0.37950897 C46.93746295 -0.39043132 48.92202421 -0.42162628 50.9065094 -0.45318604 C57.77340451 -0.45488554 62.57056265 -0.41975913 68 4 C70.84797954 7.86973984 71.376126 10.61048455 71.38095093 15.37609863 C71.3894104 16.66311172 71.39786987 17.95012482 71.40658569 19.27613831 C71.40075327 20.69516118 71.39460879 22.11418281 71.38818359 23.53320312 C71.39225035 25.03320192 71.39759282 26.53319773 71.40411377 28.03318787 C71.41778086 32.10135441 71.41249129 36.1692925 71.40297651 40.237463 C71.39537676 44.49657173 71.4024264 48.755661 71.40713501 53.01477051 C71.41259164 60.1669465 71.40540338 67.31902953 71.39111328 74.47119141 C71.37478692 82.73791787 71.38007549 91.00442235 71.3965925 99.27114344 C71.41021 106.37107063 71.41212574 113.47093103 71.40427649 120.57086706 C71.39960142 124.81034833 71.39897053 129.04972528 71.40888596 133.28919983 C71.41755721 137.27507471 71.41153096 141.26066363 71.39420319 145.24650764 C71.39023917 146.70860889 71.39137096 148.17073423 71.39799118 149.63282585 C71.40619926 151.62984223 71.39407704 153.62691126 71.38095093 155.62390137 C71.37981985 156.74107292 71.37868877 157.85824448 71.37752342 159.00926971 C70.81566408 163.46030415 68.8742715 166.04624927 65.89453125 169.296875 C61.79078009 171.71149781 58.35142334 171.44141595 53.6875 171.25 C52.85154297 171.23195313 52.01558594 171.21390625 51.15429688 171.1953125 C49.10236772 171.14841126 47.05103244 171.07667411 45 171 C45.32476192 170.14790231 45.64952385 169.29580462 45.98412704 168.41788578 C47.04356607 164.85342276 47.25154176 162.02302185 47.25396729 158.31382751 C47.25864726 157.34362753 47.25864726 157.34362753 47.26342177 156.35382754 C47.2713578 154.2005529 47.26509555 152.04756352 47.25878906 149.89428711 C47.26150086 148.34488257 47.26506285 146.79547931 47.26940918 145.24607849 C47.27851228 141.04785259 47.27499771 136.84972519 47.26865101 132.6514976 C47.26358117 128.25493149 47.26828512 123.8583737 47.27142334 119.46180725 C47.27505973 112.08023568 47.27027207 104.69870416 47.26074219 97.31713867 C47.24985423 88.78516112 47.253387 80.25327913 47.264395 71.72130388 C47.27347238 64.39207006 47.27475106 57.062865 47.26951766 49.73362738 C47.26640097 45.35780716 47.26598046 40.98203185 47.27259064 36.60621452 C47.27837016 32.49316625 47.27435609 28.38024117 47.26280212 24.26720619 C47.26015896 22.75833719 47.26091477 21.24945782 47.26532745 19.74059296 C47.27079789 17.67998522 47.26393099 15.61977153 47.25396729 13.55918884 C47.25321323 12.40644439 47.25245918 11.25369993 47.25168228 10.06602383 C47.11699163 6.58153238 47.11699163 6.58153238 45 2 C30.15 1.67 15.3 1.34 0 1 C0 0.67 0 0.34 0 0 Z " fill="#534E55" transform="translate(426,241)"/>
<path d="M0 0 C23.01267458 -1.12594945 42.34070005 -1.32187958 63.62109375 8.49755859 C69.37781396 11.05730254 75.29305321 13.19549232 81.19839478 15.38461304 C84.34071656 16.55425155 87.47267301 17.75039537 90.60546875 18.9453125 C91.64856201 19.34250488 92.69165527 19.73969727 93.76635742 20.14892578 C94.50345947 20.42978027 95.24056152 20.71063477 96 21 C96 24.3 96 27.6 96 31 C82.14635054 34.35053958 68.28910979 37.6782148 54.38305664 40.80566406 C49.50188005 41.91293915 44.66500776 43.05912323 39.8671875 44.48828125 C25.90260457 48.5724618 12.48217162 48.531711 -2 48 C-3.42482095 41.84946366 -3.18423285 35.72022762 -3.1875 29.4375 C-3.19974609 28.22513672 -3.21199219 27.01277344 -3.22460938 25.76367188 C-3.23869116 17.00949839 -2.78763658 8.36290973 0 0 Z " fill="#FD7F85" transform="translate(306,285)"/>
<path d="M0 0 C4.95 0 9.9 0 15 0 C15.47308594 1.05058594 15.94617188 2.10117187 16.43359375 3.18359375 C22.98141131 17.278447 30.43233921 25.60228036 45 32 C57.11567592 36.11631119 70.21523237 34.72904422 81.87109375 29.78125 C95.24519317 23.10347498 101.09042101 13.12345197 107 0 C111.95 0 116.9 0 122 0 C126.18766683 16.75066733 120.07086577 31.64037045 112 46 C108.88139874 49.11860126 105.06383849 48.33749983 100.87207031 48.36987305 C99.9255661 48.38462173 98.97906189 48.39937042 98.00387573 48.41456604 C94.86196997 48.45920035 91.72025039 48.4873425 88.578125 48.51171875 C87.50625694 48.52111795 86.43438889 48.53051716 85.33003998 48.54020119 C79.65624258 48.58781499 73.98253835 48.6214823 68.30859375 48.64526367 C62.44554688 48.67297605 56.58436574 48.75214221 50.72200394 48.84280682 C46.21638226 48.902595 41.7112056 48.92252745 37.20522308 48.93177223 C35.04416153 48.94336567 32.88312581 48.97024408 30.72245026 49.01270103 C27.69527548 49.06865542 24.67305398 49.06784013 21.64550781 49.0534668 C20.75384918 49.08268219 19.86219055 49.11189758 18.94351196 49.14199829 C16.33871399 49.09409727 14.42978372 48.95067869 12 48 C9.41663253 45.27953845 7.69655038 42.32867391 6 39 C5.46890625 38.03191406 4.9378125 37.06382812 4.390625 36.06640625 C-0.78836438 24.69746038 -3.08833568 12.35334272 0 0 Z " fill="#D94854" transform="translate(195,348)"/>
<path d="M0 0 C9.37035938 -0.02312504 18.74070901 -0.04091591 28.11109066 -0.05181217 C32.46168459 -0.05704065 36.81225907 -0.06413765 41.1628418 -0.07543945 C45.35790258 -0.08626959 49.55294459 -0.0922771 53.74801826 -0.09487724 C55.35206968 -0.09673126 56.95612003 -0.10035144 58.5601635 -0.10573006 C60.79916515 -0.11294219 63.0380883 -0.11399087 65.27709961 -0.11352539 C66.55395126 -0.115746 67.83080292 -0.11796661 69.14634705 -0.12025452 C72 0 72 0 73 1 C73.08700342 2.63472882 73.10701063 4.27314055 73.09765625 5.91015625 C73.09282227 7.39418945 73.09282227 7.39418945 73.08789062 8.90820312 C73.07532227 10.46958008 73.07532227 10.46958008 73.0625 12.0625 C73.05798828 13.10728516 73.05347656 14.15207031 73.04882812 15.22851562 C73.03699913 17.8190666 73.02051689 20.40950559 73 23 C71.86457764 23.01458252 70.72915527 23.02916504 69.55932617 23.04418945 C65.34904391 23.10213676 61.1392985 23.17936941 56.92944336 23.26245117 C55.10694081 23.2957174 53.28433481 23.32374406 51.46166992 23.34643555 C48.8424875 23.37995081 46.22425452 23.43226352 43.60546875 23.48828125 C42.38188911 23.49786613 42.38188911 23.49786613 41.1335907 23.50764465 C36.95985578 23.50556967 36.95985578 23.50556967 33.32319641 25.27702332 C31.66926348 27.19374753 31.66926348 27.19374753 31 31 C24.4 31 17.8 31 11 31 C9.4375 23.375 9.4375 23.375 8.99780273 21.07177734 C7.85382913 15.89941421 5.81227164 11.37759023 3.40258789 6.68212891 C3.07575264 6.03734085 2.74891739 5.3925528 2.41217804 4.72822571 C1.61171322 3.15032183 0.80635199 1.5749035 0 0 Z " fill="#FDDE7C" transform="translate(299,148)"/>
<path d="M0 0 C7.8324229 -0.09292643 15.6647152 -0.1638791 23.49755192 -0.20724869 C27.13520425 -0.22807046 30.77247776 -0.25628732 34.40991211 -0.30175781 C37.92423125 -0.34541134 41.43818741 -0.36917776 44.95275688 -0.37950897 C46.93746295 -0.39043132 48.92202421 -0.42162628 50.9065094 -0.45318604 C57.77340451 -0.45488554 62.57056265 -0.41975913 68 4 C70.79659797 7.81619474 71.36974097 10.47170351 71.34057617 15.16723633 C71.34034958 16.38812454 71.34012299 17.60901276 71.33988953 18.86689758 C71.32440567 20.17539169 71.30892181 21.4838858 71.29296875 22.83203125 C71.28736884 24.19251537 71.2831006 25.55300557 71.28010559 26.91349792 C71.26868776 30.48270567 71.23924765 34.05154329 71.20599365 37.62060547 C71.17522626 41.26720168 71.16158606 44.91385809 71.14648438 48.56054688 C71.11437449 55.70718205 71.06321571 62.85356677 71 70 C69.1291272 69.77473633 69.1291272 69.77473633 67.22045898 69.54492188 C66.16809303 69.41821106 66.16809303 69.41821106 65.09446716 69.28894043 C62.04188973 68.86782472 59.06493912 68.18784401 56.0625 67.5 C50.69625635 66.31584505 45.47193636 65.47171865 40 65 C40 64.67 40 64.34 40 64 C42.64 64 45.28 64 48 64 C47.91549958 56.65430349 47.82057891 49.30881884 47.71247292 41.96342945 C47.66259596 38.55240229 47.61626559 35.1414048 47.578125 31.73022461 C47.53408695 27.8056513 47.47447081 23.88138809 47.4140625 19.95703125 C47.40251129 18.73603226 47.39096008 17.51503326 47.37905884 16.2570343 C47.35918915 15.1162291 47.33931946 13.97542389 47.31884766 12.80004883 C47.30552399 11.79855301 47.29220032 10.79705719 47.2784729 9.76521301 C47.08209682 6.53705974 47.08209682 6.53705974 45 2 C30.15 1.67 15.3 1.34 0 1 C0 0.67 0 0.34 0 0 Z " fill="#524D54" transform="translate(24,241)"/>
<path d="M0 0 C1.27685165 0.00222061 2.55370331 0.00444122 3.86924744 0.00672913 C4.57165054 0.0065831 5.27405365 0.00643707 5.9977417 0.00628662 C8.32985983 0.00698579 10.66189904 0.01477835 12.9940033 0.02259827 C14.60683142 0.02446243 16.21966012 0.02588634 17.83248901 0.02688599 C22.08550062 0.03071129 26.33847828 0.04054167 30.59147644 0.05158997 C34.92812135 0.06180383 39.26477171 0.06638355 43.60142517 0.07142639 C52.11641474 0.08216393 60.63137667 0.09924049 69.14634705 0.12025452 C68.44058533 1.47957092 68.44058533 1.47957092 67.7205658 2.86634827 C67.09132862 4.09664782 66.46244129 5.32712635 65.83384705 6.55775452 C65.52511658 7.15007874 65.21638611 7.74240295 64.89830017 8.35267639 C62.40456871 13.2613899 60.93452239 17.7557285 59.14634705 23.12025452 C38.35634705 23.12025452 17.56634705 23.12025452 -3.85365295 23.12025452 C-3.85365295 0.16239507 -3.85365295 0.16239507 0 0 Z " fill="#FDDE7C" transform="translate(143.85365295410156,147.87974548339844)"/>
<path d="M0 0 C0.99773437 -0.00708984 1.99546875 -0.01417969 3.0234375 -0.02148438 C10.1948937 0.0410015 10.1948937 0.0410015 13.11828613 1.48071289 C15.90970067 4.38349428 15.5593202 7.33347231 15.51757812 11.15014648 C15.5245874 11.93419861 15.53159668 12.71825073 15.53881836 13.52606201 C15.55643862 16.12059846 15.54476079 18.714046 15.53125 21.30859375 C15.53394404 23.11076568 15.53782573 24.9129362 15.54284668 26.71510315 C15.5487474 30.49388454 15.54016147 34.27228792 15.52148438 38.05102539 C15.49871068 42.89470534 15.51180401 47.73749801 15.53577423 52.58114529 C15.55023076 56.30351949 15.54562663 60.02568349 15.53526306 63.74806404 C15.53259452 65.5338457 15.53587003 67.31964643 15.54518127 69.10540581 C15.55534288 71.60260393 15.53985187 74.09836768 15.51757812 76.59545898 C15.52567505 77.33377457 15.53377197 78.07209015 15.54211426 78.83277893 C15.48592058 82.23405189 15.23142493 84.12423247 13.18640137 86.89247131 C9.95747666 89.17420301 7.85032174 89.05630171 4 88.4375 C1.21743326 85.7576115 0.10018514 84.1004082 -0.48101807 80.25468445 C-0.47213562 79.05777481 -0.46325317 77.86086517 -0.45410156 76.62768555 C-0.45468567 75.96371262 -0.45526978 75.29973969 -0.45587158 74.61564636 C-0.45309867 72.43462698 -0.42204805 70.25499747 -0.390625 68.07421875 C-0.3831597 66.55679572 -0.37746813 65.03936302 -0.37347412 63.52192688 C-0.35824032 59.53833144 -0.3189788 55.5553243 -0.2746582 51.57196045 C-0.23365632 47.5031327 -0.21545267 43.4342094 -0.1953125 39.36523438 C-0.1524816 31.38905369 -0.0842585 23.41335014 0 15.4375 C-0.68562012 15.46215332 -1.37124023 15.48680664 -2.07763672 15.51220703 C-2.97756348 15.53138184 -3.87749023 15.55055664 -4.8046875 15.5703125 C-6.14249268 15.60729248 -6.14249268 15.60729248 -7.50732422 15.64501953 C-10 15.4375 -10 15.4375 -13.125 13.3125 C-15.3337936 9.92568314 -15.75856436 8.39889166 -15 4.4375 C-11.50541527 -1.15383557 -5.88739267 -0.11789998 0 0 Z " fill="#060303" transform="translate(249,247.5625)"/>
<path d="M0 0 C2.536875 0.32484375 5.07375 0.6496875 7.6875 0.984375 C17.23736575 2.1002896 26.70685687 2.30623802 36.31347656 2.26074219 C38.99827639 2.25000689 41.68240748 2.26072269 44.3671875 2.2734375 C55.73627282 2.28122881 66.71935206 1.44447321 78 0 C78 6.93 78 13.86 78 21 C52.26 21 26.52 21 0 21 C0 14.07 0 7.14 0 0 Z " fill="#D9E6F8" transform="translate(217,180)"/>
<path d="M0 0 C1.52734375 0.984375 1.52734375 0.984375 4.02734375 2.984375 C4.85234375 3.54125 5.67734375 4.098125 6.52734375 4.671875 C10.05927258 7.93890917 12.75448512 11.74326766 15.02734375 15.984375 C15.02734375 16.974375 15.02734375 17.964375 15.02734375 18.984375 C4.18996119 21.25017376 -6.494893 21.2918539 -17.52026367 21.24511719 C-20.53259348 21.23438413 -23.54432872 21.24507027 -26.55664062 21.2578125 C-36.21130203 21.26378969 -45.523371 21.19059025 -54.97265625 18.984375 C-53.62543901 11.37873563 -48.93027998 6.05984791 -42.66015625 1.671875 C-28.79183025 -6.72395811 -14.73208162 -7.5848341 0 0 Z " fill="#6F7CD0" transform="translate(275.97265625,147.015625)"/>
<path d="M0 0 C0.67675781 0.00424484 1.35351562 0.00848969 2.05078125 0.01286316 C4.18011893 0.0294524 6.30845589 0.0670619 8.4375 0.10546875 C9.89451743 0.12054134 11.35154993 0.1342252 12.80859375 0.14648438 C16.35187925 0.17928972 19.89459171 0.23092968 23.4375 0.29296875 C24.07059191 1.47617451 24.69346718 2.66484723 25.3125 3.85546875 C25.66054687 4.51675781 26.00859375 5.17804688 26.3671875 5.859375 C27.71655317 8.92745826 28.56762419 12.06032217 29.4375 15.29296875 C28.48762207 15.22376221 27.53774414 15.15455566 26.55908203 15.08325195 C-4.9344559 13.09203103 -30.10023573 22.04522464 -58.69296265 34.5783844 C-60.5625 35.29296875 -60.5625 35.29296875 -62.5625 35.29296875 C-62.5625 30.67296875 -62.5625 26.05296875 -62.5625 21.29296875 C-56.01560082 18.78406201 -49.4685587 16.27552874 -42.92138672 13.76733398 C-40.69641295 12.91489637 -38.47147755 12.06235862 -36.24658203 11.2097168 C-33.03949014 9.98069031 -29.83225822 8.75202987 -26.625 7.5234375 C-25.63822266 7.14519333 -24.65144531 6.76694916 -23.63476562 6.37724304 C-21.78198244 5.66765701 -19.9279581 4.96130038 -18.07250977 4.25871277 C-16.49439079 3.65152033 -14.92316359 3.0257669 -13.36303711 2.37373352 C-8.75782769 0.48799047 -4.96046518 -0.06200581 0 0 Z " fill="#FB7E83" transform="translate(172.5625,254.70703125)"/>
<path d="M0 0 C3.61620806 -0.12669807 7.21503003 -0.22260921 10.83398438 -0.21118164 C11.83738358 -0.21113632 11.83738358 -0.21113632 12.86105347 -0.21109009 C26.70793675 -0.11463554 38.12411847 3.71067009 50.79394531 9.22387695 C56.63942579 11.70477949 62.59352664 13.89255519 68.54244995 16.1109314 C71.67982758 17.28467222 74.80937104 18.47857153 77.93945312 19.67163086 C79.71964844 20.34967773 81.49984375 21.02772461 83.33398438 21.72631836 C83.33398438 26.34631836 83.33398438 30.96631836 83.33398438 35.72631836 C79.97757702 35.05503689 77.32266977 34.45609191 74.20556641 33.28344727 C73.42770782 32.99289459 72.64984924 32.70234192 71.84841919 32.40298462 C70.60764114 31.93268326 70.60764114 31.93268326 69.34179688 31.45288086 C68.47763153 31.12847015 67.61346619 30.80405945 66.72311401 30.46981812 C64.89855032 29.78401431 63.07468093 29.09636086 61.25146484 28.40698242 C58.47714805 27.35818492 55.70070232 26.31519829 52.92382812 25.27319336 C51.14635561 24.60426458 49.36900773 23.9350045 47.59179688 23.26538086 C46.76865997 22.95589508 45.94552307 22.6464093 45.09744263 22.32754517 C44.31327972 22.03068817 43.52911682 21.73383118 42.72119141 21.42797852 C41.96880692 21.1441481 41.21642242 20.86031769 40.4412384 20.56788635 C38.5399507 19.80857454 36.68766713 18.92925244 34.8449707 18.03710938 C30.41914842 16.38477366 26.58449287 16.25028185 21.90039062 16.21459961 C20.58348488 16.18767281 20.58348488 16.18767281 19.23997498 16.16020203 C16.45885908 16.10638157 13.677912 16.07229472 10.89648438 16.03881836 C9.00127874 16.00562028 7.10609529 15.97112833 5.2109375 15.93530273 C0.58540883 15.85067161 -4.04007224 15.78372636 -8.66601562 15.72631836 C-8.23754022 14.16131953 -7.79777188 12.59941084 -7.35351562 11.03881836 C-7.10988281 10.16870117 -6.86625 9.29858398 -6.61523438 8.40209961 C-4.02348591 1.09614199 -4.02348591 1.09614199 0 0 Z " fill="#FB7E84" transform="translate(318.666015625,254.273681640625)"/>
<path d="M0 0 C0 15.18 0 30.36 0 46 C-6 49 -6 49 -22 53 C-22 37.16 -22 21.32 -22 5 C-22.66 4.67 -23.32 4.34 -24 4 C-21.50276548 3.32114013 -19.00303859 2.65682573 -16.5 2 C-15.80390625 1.80921875 -15.1078125 1.6184375 -14.390625 1.421875 C-13.69453125 1.24140625 -12.9984375 1.0609375 -12.28125 0.875 C-11.65283203 0.70742188 -11.02441406 0.53984375 -10.37695312 0.3671875 C-6.95637682 -0.16121706 -3.46114918 0 0 0 Z " fill="#D94854" transform="translate(447,321)"/>
<path d="M0 0 C4.36775158 3.14884416 7.96773395 6.77820184 9.6875 11.9375 C9.76723476 13.27275717 9.79521338 14.61162083 9.78515625 15.94921875 C9.78193359 16.70654297 9.77871094 17.46386719 9.77539062 18.24414062 C9.76282227 19.42266602 9.76282227 19.42266602 9.75 20.625 C9.74548828 21.42228516 9.74097656 22.21957031 9.73632812 23.04101562 C9.7245585 25.00654257 9.70662348 26.97203085 9.6875 28.9375 C9.06746094 28.793125 8.44742188 28.64875 7.80859375 28.5 C-3.57570408 26.11377163 -15.02795145 25.96368956 -26.3125 28.9375 C-26.39394943 26.22855233 -26.45320614 23.52208737 -26.5 20.8125 C-26.52513672 20.05195312 -26.55027344 19.29140625 -26.57617188 18.5078125 C-26.65176825 12.66169301 -25.71098817 8.48555982 -21.55859375 4.07421875 C-20.96175781 3.59597656 -20.36492187 3.11773437 -19.75 2.625 C-19.15058594 2.13386719 -18.55117187 1.64273438 -17.93359375 1.13671875 C-12.88415912 -2.59864615 -5.73033813 -1.83803298 0 0 Z " fill="#E2626C" transform="translate(264.3125,101.0625)"/>
<path d="M0 0 C4.62 0 9.24 0 14 0 C16.44506755 9.97973623 17.42060557 18.77818272 17.25 29.0625 C17.24484375 30.34060547 17.2396875 31.61871094 17.234375 32.93554688 C17.19041509 38.1750187 17.0319689 42.8401555 16 48 C6.76 48 -2.48 48 -12 48 C-12 47.67 -12 47.34 -12 47 C-6.72 47 -1.44 47 4 47 C3.7580243 42.78601885 3.51180642 38.57268955 3.25537109 34.35961914 C3.16964756 32.93137518 3.08624667 31.50298957 3.00537109 30.07446289 C2.56899649 22.39480853 2.01819293 14.86797892 0.39794922 7.32543945 C0 5 0 5 0 0 Z " fill="#DE616B" transform="translate(192,285)"/>
<path d="M0 0 C4.62 0 9.24 0 14 0 C13.79503906 1.71703125 13.59007812 3.4340625 13.37890625 5.203125 C11.75222352 19.13592887 10.46363792 32.97894994 10 47 C14.95 47 19.9 47 25 47 C25 47.33 25 47.66 25 48 C16.09 48 7.18 48 -2 48 C-3.25025724 41.74871381 -3.1841941 35.79474751 -3.1875 29.4375 C-3.19974609 28.22513672 -3.21199219 27.01277344 -3.22460938 25.76367188 C-3.23869116 17.00949839 -2.78763658 8.36290973 0 0 Z " fill="#DF616B" transform="translate(306,285)"/>
<path d="M0 0 C3.609375 -0.020625 7.21875 -0.04125 10.9375 -0.0625 C12.07695068 -0.071604 13.21640137 -0.08070801 14.39038086 -0.09008789 C15.28120361 -0.09258545 16.17202637 -0.09508301 17.08984375 -0.09765625 C18.46450806 -0.10551147 18.46450806 -0.10551147 19.86694336 -0.11352539 C22 0 22 0 23 1 C23.08700342 2.63472882 23.10701063 4.27314055 23.09765625 5.91015625 C23.09515869 6.800979 23.09266113 7.69180176 23.09008789 8.60961914 C23.08098389 9.74906982 23.07187988 10.88852051 23.0625 12.0625 C23.041875 15.671875 23.02125 19.28125 23 23 C11.45 23 -0.1 23 -12 23 C-12 22.67 -12 22.34 -12 22 C-8.04 22 -4.08 22 0 22 C0 14.74 0 7.48 0 0 Z " fill="#FCCE64" transform="translate(349,148)"/>
<path d="M0 0 C1.32 0.33 2.64 0.66 4 1 C3.01 1 2.02 1 1 1 C1 7.27 1 13.54 1 20 C18.82 20 36.64 20 55 20 C55 14.39 55 8.78 55 3 C58.08275665 2.49620319 61.16611856 1.9968227 64.25 1.5 C65.12269531 1.35691406 65.99539063 1.21382812 66.89453125 1.06640625 C67.73886719 0.93105469 68.58320313 0.79570312 69.453125 0.65625 C70.22817383 0.53056641 71.00322266 0.40488281 71.80175781 0.27539062 C74 0 74 0 78 0 C78 6.93 78 13.86 78 21 C52.26 21 26.52 21 0 21 C0 14.07 0 7.14 0 0 Z " fill="#B8D0F0" transform="translate(217,180)"/>
<path d="M0 0 C5.26770198 0.65759749 10.30133173 1.73264124 15.4375 3.0625 C16.16904297 3.24876953 16.90058594 3.43503906 17.65429688 3.62695312 C19.43703198 4.0813758 21.21863787 4.54022466 23 5 C23.08160748 6.89510699 23.13946459 8.79124504 23.1875 10.6875 C23.23970703 12.27111328 23.23970703 12.27111328 23.29296875 13.88671875 C22.8534602 18.55722964 21.00643201 20.90207417 17.89453125 24.296875 C13.79078009 26.71149781 10.35142334 26.44141595 5.6875 26.25 C4.85154297 26.23195313 4.01558594 26.21390625 3.15429688 26.1953125 C1.10236772 26.14841126 -0.94896756 26.07667411 -3 26 C-2.52433594 24.83597656 -2.52433594 24.83597656 -2.0390625 23.6484375 C-0.70105666 18.95032677 -0.54144863 14.48668711 -0.375 9.625 C-0.33632812 8.69816406 -0.29765625 7.77132813 -0.2578125 6.81640625 C-0.16412409 4.5444623 -0.07840652 2.27251404 0 0 Z " fill="#534E55" transform="translate(72,386)"/>
<path d="M0 0 C11.47754518 -0.67625471 22.76503852 0.61203082 32 8 C32.825 8.556875 33.65 9.11375 34.5 9.6875 C38.03192883 12.95453417 40.72714137 16.75889266 43 21 C43 21.99 43 22.98 43 24 C35.94546999 25.20443195 29.16562789 26.28100502 22 26 C21.79246094 25.38253906 21.58492188 24.76507813 21.37109375 24.12890625 C18.07813932 15.07672608 12.97077145 7.54488449 5 2 C2.27886497 1.13457301 2.27886497 1.13457301 0 1 C0 0.67 0 0.34 0 0 Z " fill="#5564C7" transform="translate(248,142)"/>
<path d="M0 0 C3 1 3 1 4.16796875 2.828125 C7.22677329 10.09425074 7.33438955 16.14184566 7 24 C2.38 24.99 -2.24 25.98 -7 27 C-7.08144943 24.29105233 -7.14070614 21.58458737 -7.1875 18.875 C-7.21263672 18.11445312 -7.23777344 17.35390625 -7.26367188 16.5703125 C-7.3434761 10.39878554 -6.10171288 6.2818597 -1.8125 1.625 C-1.214375 1.08875 -0.61625 0.5525 0 0 Z " fill="#FA7D83" transform="translate(245,103)"/>
<path d="M0 0 C1.77206945 0.08044414 3.5437602 0.17736708 5.3125 0.3125 C5.00122484 1.89607459 4.68842711 3.47934993 4.375 5.0625 C4.20097656 5.94421875 4.02695312 6.8259375 3.84765625 7.734375 C3.39002809 9.93900703 2.85859986 12.12810057 2.3125 14.3125 C9.5725 14.3125 16.8325 14.3125 24.3125 14.3125 C24.3125 14.6425 24.3125 14.9725 24.3125 15.3125 C12.4325 15.3125 0.5525 15.3125 -11.6875 15.3125 C-7.10740058 0.04550192 -7.10740058 0.04550192 0 0 Z " fill="#CB4651" transform="translate(321.6875,254.6875)"/>
<path d="M0 0 C3.63 0 7.26 0 11 0 C13.7280766 5.18334553 15.34668778 9.21340724 17 15 C5.12 15 -6.76 15 -19 15 C-19 14.67 -19 14.34 -19 14 C-11.74 14 -4.48 14 3 14 C2.505 12.246875 2.01 10.49375 1.5 8.6875 C0.63242392 5.61483471 0 3.2002215 0 0 Z " fill="#CB4651" transform="translate(185,255)"/>
</svg>
