<?xml version="1.0" encoding="UTF-8"?>
<svg version="1.1" xmlns="http://www.w3.org/2000/svg" width="512" height="512">
<path d="M0 0 C1.50064445 -0.00302389 3.00128735 -0.00691455 4.50192755 -0.01159257 C8.60862567 -0.02185084 12.71523627 -0.01969629 16.82194149 -0.01541197 C21.25764662 -0.01294079 25.69333088 -0.02196381 30.12902832 -0.02944946 C38.81272533 -0.0421878 47.49639141 -0.04399121 56.18009619 -0.0416492 C63.24023249 -0.03986483 70.30035943 -0.04161824 77.36049461 -0.04587364 C78.36604202 -0.04646883 79.37158943 -0.04706402 80.40760797 -0.04767724 C82.45051339 -0.04888902 84.49341881 -0.05010316 86.53632423 -0.05131962 C105.68780239 -0.06219193 124.83926295 -0.06003419 143.99074211 -0.05393478 C161.49990554 -0.04876651 179.00901332 -0.06001923 196.51816574 -0.07903299 C214.5083113 -0.09841889 232.49843054 -0.10666603 250.4885866 -0.10290974 C260.58395035 -0.10099876 270.67926675 -0.10347518 280.77462196 -0.11762428 C289.36944561 -0.12954866 297.96419274 -0.13093114 306.55901746 -0.11883412 C310.94126799 -0.11295273 315.32337866 -0.11182547 319.70561981 -0.12383652 C323.72324616 -0.13471991 327.74061628 -0.13156294 331.75823077 -0.11757483 C333.20567566 -0.11493464 334.65314079 -0.11727301 336.10056577 -0.1253107 C353.56859588 -0.21552035 366.57467775 3.85354872 379.69523621 15.52632141 C386.1651308 22.64727458 390.64865204 30.58153126 394.55461121 39.32319641 C395.0215741 40.3590387 395.48853699 41.39488098 395.96965027 42.46211243 C408.40781282 70.54944517 416.80877079 99.86404822 421.17961121 130.26069641 C421.31895081 131.22880753 421.31895081 131.22880753 421.46110535 132.21647644 C423.32643955 145.61127835 423.57986743 158.93930353 423.55461121 172.44819641 C423.55379547 174.09502914 423.55379547 174.09502914 423.55296326 175.77513123 C423.51173495 193.93652861 422.51302015 211.38150301 419.17961121 229.26069641 C418.88207947 230.92721252 418.88207947 230.92721252 418.57853699 232.62739563 C412.90023995 263.60279961 400.7619867 319.60531332 373.90617371 338.89350891 C363.44316806 345.55763866 353.33493639 348.22731359 340.96086121 345.56929016 C329.91482668 342.23595399 321.54685888 335.63000289 315.92961121 325.51069641 C311.7660968 316.46942455 310.80202338 305.93841632 314.16056824 296.50556946 C316.74929338 290.4126452 319.51227552 284.45283532 322.48039246 278.5358429 C337.71835838 248.26734049 337.71835838 248.26734049 342.17961121 215.26069641 C340.3987526 213.14847222 338.88568577 212.36328085 336.15422058 211.96643066 C333.56033371 211.81565699 330.9809509 211.76702516 328.38273621 211.74897766 C327.43396606 211.73102646 326.48519592 211.71307526 325.50767517 211.69458008 C322.48169886 211.64046136 319.45588043 211.60657615 316.42961121 211.57319641 C314.37620381 211.54002474 312.32281726 211.50553522 310.26945496 211.46968079 C305.23962092 211.38473384 300.20983385 211.3179299 295.17961121 211.26069641 C295.20055847 212.54009094 295.22150574 213.81948547 295.24308777 215.13764954 C295.31641052 219.96093707 295.36174083 224.78417722 295.39933777 229.60786438 C295.41924582 231.6811913 295.44638231 233.75446365 295.48136902 235.82759094 C295.85594768 258.62180434 292.64040222 277.19398671 276.17961121 294.26069641 C261.21015693 307.43054416 245.20691292 311.73314953 225.55534363 311.66474915 C224.14097561 311.67046869 222.7266122 311.67743899 221.31225586 311.68554688 C217.5103518 311.70332124 213.70868052 311.70233963 209.90674758 311.69660449 C206.71394015 311.69348887 203.52117592 311.69963137 200.32837468 311.70564324 C192.78550402 311.719636 185.24274674 311.71817188 177.69987488 311.70674133 C169.96141984 311.69527232 162.22331188 311.70932723 154.48490256 311.73613781 C147.80161858 311.75841159 141.11844261 311.76490588 134.43512422 311.7590614 C130.46084764 311.7557175 126.48679322 311.75793297 122.51254845 311.77531242 C118.77023394 311.79096683 115.0284267 311.7866255 111.28613091 311.76800728 C109.28783715 311.7626616 107.28951957 311.77669445 105.29127502 311.79170227 C86.2299599 311.63950974 70.03087813 305.62020238 56.17961121 292.26069641 C40.32997729 274.24527401 38.70545686 255.88234662 38.99211121 232.94819641 C39.00718851 230.83948203 39.02087151 228.7307572 39.03312683 226.62202454 C39.06588352 221.50131967 39.11749713 216.38112586 39.17961121 211.26069641 C33.12858494 211.32954452 27.07825157 211.41749788 21.02775574 211.52314758 C18.96956568 211.55639652 16.91128445 211.58442855 14.85295105 211.60713196 C11.8937343 211.64067831 8.93535303 211.69299443 5.97648621 211.74897766 C4.59659515 211.75856255 4.59659515 211.75856255 3.18882751 211.76834106 C-1.80046055 211.87118268 -1.80046055 211.87118268 -6.40534973 213.60957336 C-8.21059288 215.71600184 -8.3100786 217.3306018 -8.14460754 220.05659485 C-7.42803286 224.92800772 -6.12762966 229.64490842 -4.82038879 234.38569641 C-4.34508728 236.11505432 -4.34508728 236.11505432 -3.86018372 237.87934875 C1.14349706 255.63671696 8.17143461 271.79374642 16.64054871 288.16304016 C22.07311898 298.82935786 23.75199404 309.65864575 20.17961121 321.26069641 C15.29990414 332.760643 8.64174548 339.47389972 -2.82038879 344.26069641 C-12.04731931 347.91665001 -22.19459723 347.29536528 -31.25788879 343.51460266 C-54.7572598 332.01567264 -64.21910206 300.3572186 -72.30867004 277.31538391 C-77.6443529 261.5543261 -81.81422605 245.62423454 -84.82038879 229.26069641 C-85.03066711 228.14114563 -85.24094543 227.02159485 -85.45759583 225.86811829 C-91.78783861 190.60320281 -91.3814135 152.45164711 -84.82038879 117.26069641 C-84.6220343 116.14968567 -84.42367981 115.03867493 -84.21931458 113.89399719 C-78.19354441 81.02310936 -66.18291364 28.93331402 -37.32038879 8.88569641 C-25.23132494 1.45595925 -14.0156793 -0.04012316 0 0 Z M5.17961121 80.26069641 C3.91428406 82.88957244 2.8234497 85.41503568 1.80461121 88.13569641 C1.50861023 88.90929504 1.21260925 89.68289368 0.90763855 90.47993469 C-2.69685662 100.19765367 -5.28204447 110.22157821 -7.82038879 120.26069641 C-8.00166321 120.94277161 -8.18293762 121.6248468 -8.3697052 122.32759094 C-9.10069922 125.46302467 -9.16359389 128.05744888 -8.82038879 131.26069641 C-6.69091894 133.7135575 -4.96235951 135.07499618 -1.70573425 135.60456848 C0.89672979 135.72408508 3.46966155 135.71035306 6.07414246 135.65132141 C6.91440979 135.64729309 7.75467712 135.64326477 8.6204071 135.63911438 C11.74453216 135.6182634 14.86834473 135.56241781 17.99211121 135.51069641 C24.98398621 135.42819641 31.97586121 135.34569641 39.17961121 135.26069641 C39.17961121 115.79069641 39.17961121 96.32069641 39.17961121 76.26069641 C31.87836121 76.13694641 31.87836121 76.13694641 24.42961121 76.01069641 C22.13491882 75.95607239 22.13491882 75.95607239 19.79386902 75.90034485 C18.58569519 75.89035461 17.37752136 75.88036438 16.13273621 75.87007141 C14.89684753 75.84912415 13.66095886 75.82817688 12.38761902 75.80659485 C8.56026075 76.34836702 7.48865058 77.22624788 5.17961121 80.26069641 Z M295.17961121 76.26069641 C295.17961121 95.73069641 295.17961121 115.20069641 295.17961121 135.26069641 C305.66742371 135.38444641 305.66742371 135.38444641 316.36711121 135.51069641 C319.66618469 135.56532043 319.66618469 135.56532043 323.03190613 135.62104797 C324.78295415 135.63273479 326.53401306 135.64292663 328.28507996 135.65132141 C329.18794739 135.67178528 330.09081482 135.69224915 331.02104187 135.71333313 C335.24128083 135.71567154 337.57172259 135.6212399 341.26847839 133.42866516 C343.44972882 131.34744515 343.44972882 131.34744515 343.65226746 128.18257141 C343.04637576 123.15517254 341.92985356 118.39640233 340.61711121 113.51069641 C340.3511615 112.50732239 340.08521179 111.50394836 339.811203 110.47016907 C335.29423234 93.10788313 335.29423234 93.10788313 327.17961121 77.26069641 C324.25763431 75.79970796 321.68067645 76.1493474 318.42179871 76.16304016 C316.60204529 76.1667865 316.60204529 76.1667865 314.74552917 76.17060852 C313.19752625 76.17971252 311.64952332 76.18881653 310.05461121 76.19819641 C302.69148621 76.22913391 302.69148621 76.22913391 295.17961121 76.26069641 Z " fill="#6F7E83" transform="translate(88.82038879394531,82.73930358886719)"/>
<path d="M0 0 C1.50064445 -0.00302389 3.00128735 -0.00691455 4.50192755 -0.01159257 C8.60862567 -0.02185084 12.71523627 -0.01969629 16.82194149 -0.01541197 C21.25764662 -0.01294079 25.69333088 -0.02196381 30.12902832 -0.02944946 C38.81272533 -0.0421878 47.49639141 -0.04399121 56.18009619 -0.0416492 C63.24023249 -0.03986483 70.30035943 -0.04161824 77.36049461 -0.04587364 C78.36604202 -0.04646883 79.37158943 -0.04706402 80.40760797 -0.04767724 C82.45051339 -0.04888902 84.49341881 -0.05010316 86.53632423 -0.05131962 C105.68780239 -0.06219193 124.83926295 -0.06003419 143.99074211 -0.05393478 C161.49990554 -0.04876651 179.00901332 -0.06001923 196.51816574 -0.07903299 C214.5083113 -0.09841889 232.49843054 -0.10666603 250.4885866 -0.10290974 C260.58395035 -0.10099876 270.67926675 -0.10347518 280.77462196 -0.11762428 C289.36944561 -0.12954866 297.96419274 -0.13093114 306.55901746 -0.11883412 C310.94126799 -0.11295273 315.32337866 -0.11182547 319.70561981 -0.12383652 C323.72324616 -0.13471991 327.74061628 -0.13156294 331.75823077 -0.11757483 C333.20567566 -0.11493464 334.65314079 -0.11727301 336.10056577 -0.1253107 C353.56859588 -0.21552035 366.57467775 3.85354872 379.69523621 15.52632141 C386.1651308 22.64727458 390.64865204 30.58153126 394.55461121 39.32319641 C395.0215741 40.3590387 395.48853699 41.39488098 395.96965027 42.46211243 C408.40781282 70.54944517 416.80877079 99.86404822 421.17961121 130.26069641 C421.31895081 131.22880753 421.31895081 131.22880753 421.46110535 132.21647644 C423.32643955 145.61127835 423.57986743 158.93930353 423.55461121 172.44819641 C423.55379547 174.09502914 423.55379547 174.09502914 423.55296326 175.77513123 C423.51173495 193.93652861 422.51302015 211.38150301 419.17961121 229.26069641 C418.88207947 230.92721252 418.88207947 230.92721252 418.57853699 232.62739563 C412.90023995 263.60279961 400.7619867 319.60531332 373.90617371 338.89350891 C363.44316806 345.55763866 353.33493639 348.22731359 340.96086121 345.56929016 C329.91482668 342.23595399 321.54685888 335.63000289 315.92961121 325.51069641 C311.7660968 316.46942455 310.80202338 305.93841632 314.16056824 296.50556946 C316.74929338 290.4126452 319.51227552 284.45283532 322.48039246 278.5358429 C337.71835838 248.26734049 337.71835838 248.26734049 342.17961121 215.26069641 C340.3987526 213.14847222 338.88568577 212.36328085 336.15422058 211.96643066 C333.56033371 211.81565699 330.9809509 211.76702516 328.38273621 211.74897766 C327.43396606 211.73102646 326.48519592 211.71307526 325.50767517 211.69458008 C322.48169886 211.64046136 319.45588043 211.60657615 316.42961121 211.57319641 C314.37620381 211.54002474 312.32281726 211.50553522 310.26945496 211.46968079 C305.23962092 211.38473384 300.20983385 211.3179299 295.17961121 211.26069641 C295.20055847 212.54009094 295.22150574 213.81948547 295.24308777 215.13764954 C295.31641052 219.96093707 295.36174083 224.78417722 295.39933777 229.60786438 C295.41924582 231.6811913 295.44638231 233.75446365 295.48136902 235.82759094 C295.85594768 258.62180434 292.64040222 277.19398671 276.17961121 294.26069641 C261.21015693 307.43054416 245.20691292 311.73314953 225.55534363 311.66474915 C224.14097561 311.67046869 222.7266122 311.67743899 221.31225586 311.68554688 C217.5103518 311.70332124 213.70868052 311.70233963 209.90674758 311.69660449 C206.71394015 311.69348887 203.52117592 311.69963137 200.32837468 311.70564324 C192.78550402 311.719636 185.24274674 311.71817188 177.69987488 311.70674133 C169.96141984 311.69527232 162.22331188 311.70932723 154.48490256 311.73613781 C147.80161858 311.75841159 141.11844261 311.76490588 134.43512422 311.7590614 C130.46084764 311.7557175 126.48679322 311.75793297 122.51254845 311.77531242 C118.77023394 311.79096683 115.0284267 311.7866255 111.28613091 311.76800728 C109.28783715 311.7626616 107.28951957 311.77669445 105.29127502 311.79170227 C86.2299599 311.63950974 70.03087813 305.62020238 56.17961121 292.26069641 C40.32997729 274.24527401 38.70545686 255.88234662 38.99211121 232.94819641 C39.00718851 230.83948203 39.02087151 228.7307572 39.03312683 226.62202454 C39.06588352 221.50131967 39.11749713 216.38112586 39.17961121 211.26069641 C33.12858494 211.32954452 27.07825157 211.41749788 21.02775574 211.52314758 C18.96956568 211.55639652 16.91128445 211.58442855 14.85295105 211.60713196 C11.8937343 211.64067831 8.93535303 211.69299443 5.97648621 211.74897766 C4.59659515 211.75856255 4.59659515 211.75856255 3.18882751 211.76834106 C-1.80046055 211.87118268 -1.80046055 211.87118268 -6.40534973 213.60957336 C-8.21059288 215.71600184 -8.3100786 217.3306018 -8.14460754 220.05659485 C-7.42803286 224.92800772 -6.12762966 229.64490842 -4.82038879 234.38569641 C-4.34508728 236.11505432 -4.34508728 236.11505432 -3.86018372 237.87934875 C1.14349706 255.63671696 8.17143461 271.79374642 16.64054871 288.16304016 C22.07311898 298.82935786 23.75199404 309.65864575 20.17961121 321.26069641 C15.29990414 332.760643 8.64174548 339.47389972 -2.82038879 344.26069641 C-12.04731931 347.91665001 -22.19459723 347.29536528 -31.25788879 343.51460266 C-54.7572598 332.01567264 -64.21910206 300.3572186 -72.30867004 277.31538391 C-77.6443529 261.5543261 -81.81422605 245.62423454 -84.82038879 229.26069641 C-85.03066711 228.14114563 -85.24094543 227.02159485 -85.45759583 225.86811829 C-91.78783861 190.60320281 -91.3814135 152.45164711 -84.82038879 117.26069641 C-84.6220343 116.14968567 -84.42367981 115.03867493 -84.21931458 113.89399719 C-78.19354441 81.02310936 -66.18291364 28.93331402 -37.32038879 8.88569641 C-25.23132494 1.45595925 -14.0156793 -0.04012316 0 0 Z M-35.88288879 28.19819641 C-56.3171991 54.27148305 -65.39263246 93.25166054 -70.82038879 125.26069641 C-70.98409973 126.22072571 -71.14781067 127.180755 -71.31648254 128.1698761 C-78.27280183 171.24443995 -73.99066097 216.54847725 -61.82038879 258.26069641 C-61.43173645 259.70315735 -61.43173645 259.70315735 -61.03523254 261.17475891 C-56.01757961 278.86490274 -48.47158545 296.0639493 -39.82038879 312.26069641 C-39.34859192 313.1823761 -38.87679504 314.10405579 -38.39070129 315.05366516 C-34.87597312 321.74474705 -30.28396236 327.79916509 -22.82038879 330.26069641 C-15.18693998 331.22584511 -8.0959938 331.06056533 -1.82038879 326.26069641 C3.55357584 321.00615321 6.23808744 315.23119627 6.62492371 307.75288391 C6.53142019 300.9958613 3.4329567 295.93743353 0.24211121 290.13569641 C-9.62717587 271.29872766 -16.4516412 251.80444247 -21.82038879 231.26069641 C-22.1129657 230.16833679 -22.1129657 230.16833679 -22.41145325 229.0539093 C-24.51222504 221.01946044 -24.96412612 214.7194236 -20.82038879 207.26069641 C-17.41681789 202.42140091 -14.37476605 199.54945422 -8.82038879 197.26069641 C-5.53291568 196.77519593 -2.26463169 196.66067646 1.05461121 196.57319641 C1.93375183 196.53903625 2.81289246 196.5048761 3.71867371 196.46968079 C5.87188826 196.38776502 8.02572672 196.32254062 10.17961121 196.26069641 C10.20488183 189.8703241 10.22244438 183.47996458 10.23454285 177.08955383 C10.23958428 174.91376769 10.24641728 172.73798494 10.25505066 170.56221008 C10.26712458 167.44216574 10.27284125 164.32216603 10.27726746 161.20210266 C10.28242874 160.22294388 10.28759003 159.2437851 10.29290771 158.23495483 C10.29302101 156.88366737 10.29302101 156.88366737 10.2931366 155.50508118 C10.29535721 154.70788162 10.29757782 153.91068207 10.29986572 153.08932495 C10.38011576 151.2414736 10.38011576 151.2414736 9.17961121 150.26069641 C5.50031637 150.09000748 1.82736359 149.96366747 -1.85554504 149.91889954 C-8.34219882 149.68989616 -12.67405298 148.20543634 -17.52742004 143.66304016 C-22.63356452 136.89694765 -24.76617612 131.85270802 -23.82038879 123.26069641 C-22.87623766 118.96076237 -21.68791005 114.74511993 -20.46199036 110.51948547 C-19.77615364 108.10496444 -19.13603298 105.68099801 -18.50007629 103.25288391 C-9.66253985 70.05973797 -9.66253985 70.05973797 0.51554871 64.03804016 C1.06468933 63.78151672 1.61382996 63.52499329 2.17961121 63.26069641 C2.83961121 62.93069641 3.49961121 62.60069641 4.17961121 62.26069641 C5.68033352 62.16092985 7.18535805 62.12238626 8.68937683 62.11543274 C9.62374573 62.10905289 10.55811462 62.10267303 11.52079773 62.09609985 C12.53226868 62.09498703 13.54373962 62.09387421 14.58586121 62.09272766 C15.62150208 62.08939926 16.65714294 62.08607086 17.72416687 62.0826416 C19.91650446 62.07757305 22.10884979 62.07523325 24.30119324 62.07539368 C27.66574208 62.07320543 31.0299641 62.05504399 34.39445496 62.03608704 C36.52075591 62.03315353 38.64705843 62.03116845 40.77336121 62.03022766 C42.29056763 62.01944939 42.29056763 62.01944939 43.83842468 62.00845337 C44.77279358 62.01153 45.70716248 62.01460663 46.66984558 62.01777649 C47.4943219 62.01635147 48.31879822 62.01492645 49.16825867 62.01345825 C51.17961121 62.26069641 51.17961121 62.26069641 53.17961121 64.26069641 C53.37394465 66.74843247 53.44283196 69.12476847 53.42443848 71.61340332 C53.42670305 72.38040363 53.42896762 73.14740394 53.43130082 73.93764669 C53.43662129 76.52221943 53.42774561 79.10655528 53.41911316 81.69111633 C53.42022548 83.53897173 53.42228241 85.38682677 53.42521667 87.23468018 C53.4299498 91.22344103 53.42880709 95.21214308 53.42344093 99.20090294 C53.41584253 105.51875433 53.42647651 111.83649207 53.44064331 118.15432739 C53.4784073 136.12362558 53.49661362 154.09287402 53.48503113 172.06221008 C53.47879599 181.9796985 53.49049679 191.89700452 53.52147645 201.81444818 C53.54005361 208.08262139 53.53688378 214.350275 53.51730883 220.61843908 C53.51037888 224.54053318 53.52448002 228.46235191 53.54425812 232.38439369 C53.54926466 234.1889935 53.54592733 235.99364117 53.53312492 237.79820251 C53.43337479 252.94947998 55.58548852 265.93697825 65.17961121 278.26069641 C66.04586121 279.56007141 66.04586121 279.56007141 66.92961121 280.88569641 C75.00387855 289.40853417 87.11942091 295.82297545 98.95779324 296.39491749 C99.9747833 296.39919097 100.99177336 296.40346445 102.0395813 296.40786743 C103.2126181 296.41502274 104.38565491 296.42217804 105.59423828 296.42955017 C106.87272141 296.43223907 108.15120453 296.43492798 109.46842957 296.43769836 C110.83559845 296.44396873 112.20276566 296.45061603 113.56993103 296.45761108 C118.05309373 296.47859669 122.53625654 296.48901261 127.01945496 296.49897766 C128.56847717 296.50302814 130.11749921 296.50714515 131.66652107 296.51132774 C138.95048409 296.53037227 146.23443705 296.54460134 153.51842016 296.55293971 C161.89607476 296.56269083 170.27346366 296.58895754 178.65102476 296.62944061 C185.14471105 296.65973069 191.63832178 296.67442097 198.13207728 296.67772073 C202.0013689 296.68005775 205.87037648 296.68883961 209.7395916 296.7141819 C213.38818671 296.73769284 217.03631543 296.74160511 220.68496704 296.73142052 C222.63842812 296.73069953 224.59186675 296.7496304 226.54522705 296.76948547 C239.35547184 296.69526078 250.67120782 293.68871439 261.17961121 286.26069641 C262.23148621 285.51819641 263.28336121 284.77569641 264.36711121 284.01069641 C274.40472978 274.19613603 279.83405379 261.48822407 280.30710316 247.48729324 C280.31337004 246.10482879 280.31434466 244.72233341 280.31091309 243.33985901 C280.3130288 242.57237044 280.31514451 241.80488187 280.31732434 241.01413608 C280.32328584 238.45861293 280.32232698 235.9031397 280.32145691 233.34761047 C280.32449077 231.50910356 280.32801286 229.67059741 280.33198547 227.83209229 C280.33985423 223.88160876 280.34501159 219.93113418 280.34827614 215.98064423 C280.35419692 209.73711393 280.37074489 203.4936403 280.38961792 197.25013733 C280.39595446 195.1114693 280.4022801 192.97280124 280.40859509 190.83413315 C280.4117609 189.76346147 280.41492671 188.69278979 280.41818845 187.58967352 C280.46026316 173.05896305 280.49327343 158.52828022 280.50553894 143.99751282 C280.51390463 134.18741515 280.53633348 124.37745902 280.57489461 114.56743217 C280.59469352 109.37675336 280.60704686 104.18628632 280.60206032 98.99556732 C280.59743274 94.11989547 280.61111502 89.24462633 280.63907242 84.36903572 C280.64601421 82.57713963 280.64607887 80.78520216 280.63887215 78.99330711 C280.63004585 76.55291915 280.64557397 74.11387735 280.6673584 71.67359924 C280.65891586 70.95950527 280.65047332 70.24541131 280.64177495 69.50967813 C280.69547334 66.2719205 280.7683207 64.67876892 283.08764553 62.32119942 C285.3543272 61.17212572 286.74356371 60.88118628 289.27043152 60.87251282 C290.06515869 60.86305634 290.85988586 60.85359985 291.67869568 60.84385681 C292.52977905 60.8499295 293.38086243 60.8560022 294.25773621 60.86225891 C295.5858432 60.85795364 295.5858432 60.85795364 296.94078064 60.8535614 C298.81352884 60.85152173 300.6862984 60.85704483 302.55900574 60.86958313 C305.40569109 60.88556214 308.25094018 60.86977088 311.09757996 60.85054016 C312.92180181 60.8525241 314.74602278 60.85637089 316.57023621 60.86225891 C317.41322266 60.85618622 318.25620911 60.85011353 319.1247406 60.84385681 C326.81954024 60.9339875 333.53338484 62.6842997 339.17961121 68.26069641 C350.28078692 85.25478699 359.99907855 113.83394322 357.17961121 134.26069641 C355.46703711 140.16811493 352.29742652 143.81601303 347.17961121 147.26069641 C339.54556046 151.07772179 334.51144058 150.59413717 325.17961121 151.26069641 C325.17961121 165.78069641 325.17961121 180.30069641 325.17961121 195.26069641 C329.79961121 195.59069641 334.41961121 195.92069641 339.17961121 196.26069641 C347.13899347 198.54787522 351.40134362 201.50974955 356.17961121 208.26069641 C362.49960632 220.90068665 353.42337689 241.97263822 349.42961121 254.19819641 C345.38454821 266.22586917 340.62777373 277.80631359 334.67570496 289.01850891 C334.25990173 289.81208801 333.84409851 290.60566711 333.41569519 291.42329407 C332.62114717 292.9257635 331.80821727 294.41873163 330.9728241 295.89888 C327.56877277 302.30411855 327.30565085 308.15688254 328.80851746 315.21382141 C331.52250918 321.89092239 334.92432763 325.62387539 341.00773621 329.39350891 C346.30533015 331.50873527 353.22371656 331.13146155 358.63273621 329.53804016 C365.43044922 326.33377468 369.70223658 321.06100909 373.30461121 314.57319641 C373.68005066 313.90183655 374.05549011 313.23047668 374.44230652 312.53877258 C380.2140825 301.86663178 384.6703791 290.50893477 389.17961121 279.26069641 C389.61402527 278.18022034 390.04843933 277.09974426 390.49601746 275.98652649 C393.30500391 268.85957199 395.69420384 261.72132135 397.67961121 254.32319641 C398.12179993 252.67686218 398.12179993 252.67686218 398.57292175 250.99726868 C402.03923722 237.59386867 404.26666488 223.96310665 406.17961121 210.26069641 C406.27283661 209.60671875 406.36606201 208.95274109 406.46211243 208.27894592 C408.04208197 197.00124974 408.54494562 185.89199166 408.49211121 174.51069641 C408.48995605 173.66719635 408.4878009 172.82369629 408.48558044 171.95463562 C408.3159821 130.23393212 399.91750569 90.47803647 383.17961121 52.26069641 C382.82721375 51.44745911 382.47481628 50.6342218 382.11174011 49.79634094 C375.63799525 34.97527329 368.77379147 23.7715156 353.45304871 17.02241516 C348.66242005 15.41730762 343.90179712 15.1347957 338.88103199 15.12647533 C337.00270466 15.11978857 337.00270466 15.11978857 335.08643132 15.11296672 C333.70463422 15.113056 332.32283712 15.11324582 330.94104004 15.11352539 C329.46702182 15.1102239 327.99300449 15.10649773 326.51898831 15.10238391 C322.47201635 15.09238857 318.42505922 15.08865111 314.37807667 15.0859946 C310.0118714 15.08208433 305.64567779 15.07250665 301.27947998 15.06378174 C290.73827316 15.04403993 280.1970654 15.03395498 269.65584472 15.02505395 C264.68973353 15.02066817 259.7236234 15.01530219 254.75751305 15.01006508 C238.24652611 14.9930567 221.73553983 14.97856218 205.22454548 14.97131634 C200.94207063 14.96940651 196.6595958 14.96748616 192.37712097 14.9655304 C190.78057848 14.96480479 190.78057848 14.96480479 189.15178259 14.96406452 C171.90686948 14.95576279 154.66202569 14.93042172 137.41714285 14.89794972 C119.70621403 14.86487234 101.99532045 14.84686705 84.28436059 14.8436721 C74.34266017 14.84150786 64.40106093 14.83277161 54.45939064 14.80721092 C45.99364738 14.78549485 37.52802988 14.77745807 29.06226192 14.7871777 C24.74491605 14.79171948 20.42782962 14.78984329 16.11051941 14.77041626 C12.1532144 14.75276329 8.1963577 14.75379933 4.23904779 14.76931355 C2.81238667 14.77168637 1.38569433 14.76738299 -0.04091915 14.7554849 C-13.84579308 14.64754171 -26.09058924 17.93207591 -35.88288879 28.19819641 Z M5.17961121 80.26069641 C3.91428406 82.88957244 2.8234497 85.41503568 1.80461121 88.13569641 C1.50861023 88.90929504 1.21260925 89.68289368 0.90763855 90.47993469 C-2.69685662 100.19765367 -5.28204447 110.22157821 -7.82038879 120.26069641 C-8.00166321 120.94277161 -8.18293762 121.6248468 -8.3697052 122.32759094 C-9.10069922 125.46302467 -9.16359389 128.05744888 -8.82038879 131.26069641 C-6.69091894 133.7135575 -4.96235951 135.07499618 -1.70573425 135.60456848 C0.89672979 135.72408508 3.46966155 135.71035306 6.07414246 135.65132141 C6.91440979 135.64729309 7.75467712 135.64326477 8.6204071 135.63911438 C11.74453216 135.6182634 14.86834473 135.56241781 17.99211121 135.51069641 C24.98398621 135.42819641 31.97586121 135.34569641 39.17961121 135.26069641 C39.17961121 115.79069641 39.17961121 96.32069641 39.17961121 76.26069641 C31.87836121 76.13694641 31.87836121 76.13694641 24.42961121 76.01069641 C22.13491882 75.95607239 22.13491882 75.95607239 19.79386902 75.90034485 C18.58569519 75.89035461 17.37752136 75.88036438 16.13273621 75.87007141 C14.89684753 75.84912415 13.66095886 75.82817688 12.38761902 75.80659485 C8.56026075 76.34836702 7.48865058 77.22624788 5.17961121 80.26069641 Z M295.17961121 76.26069641 C295.17961121 95.73069641 295.17961121 115.20069641 295.17961121 135.26069641 C305.66742371 135.38444641 305.66742371 135.38444641 316.36711121 135.51069641 C319.66618469 135.56532043 319.66618469 135.56532043 323.03190613 135.62104797 C324.78295415 135.63273479 326.53401306 135.64292663 328.28507996 135.65132141 C329.18794739 135.67178528 330.09081482 135.69224915 331.02104187 135.71333313 C335.24128083 135.71567154 337.57172259 135.6212399 341.26847839 133.42866516 C343.44972882 131.34744515 343.44972882 131.34744515 343.65226746 128.18257141 C343.04637576 123.15517254 341.92985356 118.39640233 340.61711121 113.51069641 C340.3511615 112.50732239 340.08521179 111.50394836 339.811203 110.47016907 C335.29423234 93.10788313 335.29423234 93.10788313 327.17961121 77.26069641 C324.25763431 75.79970796 321.68067645 76.1493474 318.42179871 76.16304016 C316.60204529 76.1667865 316.60204529 76.1667865 314.74552917 76.17060852 C313.19752625 76.17971252 311.64952332 76.18881653 310.05461121 76.19819641 C302.69148621 76.22913391 302.69148621 76.22913391 295.17961121 76.26069641 Z " fill="#000101" transform="translate(88.82038879394531,82.73930358886719)"/>
<path d="M0 0 C1.25008622 -0.00322445 2.50017244 -0.00644889 3.78814006 -0.00977105 C5.17788881 -0.00829986 6.56763747 -0.00673214 7.95738602 -0.00507832 C9.43181582 -0.00694607 10.90624513 -0.00924663 12.38067365 -0.01194364 C16.43796041 -0.01807255 20.4952266 -0.01792676 24.55251694 -0.01674926 C28.92619521 -0.01654553 33.29986683 -0.02206144 37.67354202 -0.02680683 C46.24494769 -0.03512018 54.81634648 -0.03786199 63.38775584 -0.03841921 C70.35460347 -0.03889409 77.32144883 -0.04094747 84.28829575 -0.04411983 C104.03497417 -0.05292868 123.78164715 -0.05753891 143.52832755 -0.05678936 C144.59330857 -0.0567494 145.65828959 -0.05670945 146.75554276 -0.05666828 C148.35496215 -0.05660696 148.35496215 -0.05660696 149.98669305 -0.0565444 C167.26606882 -0.05613798 184.54542278 -0.06570593 201.82479224 -0.07980665 C219.56163369 -0.0941666 237.29846452 -0.10107703 255.03531194 -0.10021287 C264.99535622 -0.09988075 274.95537766 -0.10263462 284.91541672 -0.11339092 C293.3962758 -0.12249096 301.87710169 -0.1246753 310.35796353 -0.1178815 C314.68497501 -0.11461364 319.01192278 -0.11456919 323.33892822 -0.12323475 C327.30159855 -0.13108902 331.26415455 -0.1296793 335.22682205 -0.12095062 C336.65886815 -0.11941325 338.09092275 -0.12124071 339.52295884 -0.12681069 C352.46227808 -0.17379749 363.7918573 1.54057592 374.20476151 9.9606657 C380.6004811 16.54523528 384.16601244 24.88839449 387.93913651 33.12863445 C388.27977127 33.85824383 388.62040604 34.5878532 388.97136307 35.33957195 C413.98763709 88.9963027 421.21502404 149.92230959 410.93913651 208.12863445 C410.76833572 209.10896648 410.59753494 210.08929852 410.42155838 211.09933758 C408.4915402 221.93014548 405.97448406 232.55348358 402.93913651 243.12863445 C402.54855057 244.58076336 402.54855057 244.58076336 402.15007401 246.0622282 C397.12475691 263.74476919 389.58804994 280.93616199 380.93913651 297.12863445 C380.23144119 298.51115398 380.23144119 298.51115398 379.50944901 299.9216032 C376.11483841 306.38401406 372.12859079 311.2869995 365.37273026 314.3903532 C359.42397186 316.19503272 353.0864637 316.39495993 347.27898026 314.05832195 C341.63020162 310.60681448 337.26346028 305.74691485 335.41154861 299.2887907 C333.32025007 289.72609846 336.29393924 283.33609834 340.87663651 275.00363445 C352.94085762 251.97731508 366.94615498 221.84814146 363.93913651 195.12863445 C361.52945901 189.55052287 357.22759699 185.99321722 351.93913651 183.12863445 C344.77131619 180.46399074 344.77131619 180.46399074 331.93913651 180.12863445 C331.93913651 165.60863445 331.93913651 151.08863445 331.93913651 136.12863445 C336.55913651 135.79863445 341.17913651 135.46863445 345.93913651 135.12863445 C353.18112889 132.98895489 357.923516 130.65401777 361.93913651 124.12863445 C369.09354086 108.90068352 360.2475556 87.01819266 354.94890213 72.3278532 C354.61567947 71.43711102 354.28245682 70.54636883 353.93913651 69.62863445 C353.6316951 68.79976727 353.32425369 67.97090008 353.00749588 67.1169157 C349.59140771 58.44585132 345.68772348 51.01689533 336.93913651 47.12863445 C334.21618059 46.32109344 331.73982259 45.98774095 328.90495682 45.92331219 C327.73419601 45.89339436 327.73419601 45.89339436 326.53978348 45.86287212 C325.70735123 45.84615963 324.87491898 45.82944714 324.01726151 45.8122282 C322.72728256 45.78105656 322.72728256 45.78105656 321.41124344 45.74925518 C318.67062053 45.68399707 315.92990376 45.62498528 313.18913651 45.56613445 C311.32844981 45.52292665 309.46777252 45.47931163 307.60710526 45.43527508 C303.05121128 45.32834004 298.49522311 45.22700594 293.93913651 45.12863445 C293.91931717 44.3829118 293.89949783 43.63718914 293.87907791 42.86886883 C293.7831924 39.45513257 293.67377209 36.04195567 293.56413651 32.62863445 C293.51773026 30.86906414 293.51773026 30.86906414 293.47038651 29.07394695 C293.16381918 19.92906789 293.16381918 19.92906789 290.93913651 11.12863445 C290.58970741 9.99460532 290.58970741 9.99460532 290.23321915 8.83766651 C288.83801378 5.74120372 287.66739885 4.19759344 284.93913651 2.12863445 C278.23677212 0.26661849 270.85957651 0.89983285 263.97429276 0.96408367 C261.79595445 0.95188642 259.6176347 0.93586067 257.43935013 0.91629314 C251.52580541 0.87525219 245.61367326 0.89117415 239.70010376 0.91970491 C233.5128968 0.94248501 227.32581109 0.92136068 221.1385994 0.90722942 C210.74799753 0.89085364 200.3579713 0.91243862 189.96745682 0.95529461 C177.95292652 1.00427652 165.93999841 0.98841121 153.92547703 0.93885696 C143.61185214 0.89802008 133.29864112 0.8922491 122.98496151 0.91580498 C116.82428519 0.9298394 110.664255 0.93169935 104.50362015 0.90197659 C98.71147299 0.87598383 92.92109831 0.89399577 87.12914276 0.94602489 C85.00311223 0.95792926 82.8769326 0.95449966 80.7509613 0.93466091 C69.98343693 0.33896668 69.98343693 0.33896668 60.36723709 4.07901669 C58.74025679 6.42866555 57.77759469 8.40752157 56.93913651 11.12863445 C56.27784744 12.9694157 56.27784744 12.9694157 55.60319901 14.84738445 C54.44791691 20.68459926 54.47050523 26.69965352 54.31413651 32.62863445 C54.27546463 33.83261883 54.23679276 35.0366032 54.19694901 36.27707195 C54.10328635 39.22744564 54.01756127 42.17782301 53.93913651 45.12863445 C54.59913651 45.45863445 55.25913651 45.78863445 55.93913651 46.12863445 C54.62308426 46.12750652 53.30703201 46.12637859 51.9510994 46.12521648 C47.03611759 46.1289066 42.12210729 46.17187232 37.20744705 46.2262907 C35.08641724 46.24438189 32.96527023 46.25203178 30.8441658 46.24875164 C27.78246467 46.24587478 24.72316007 46.28139474 21.66179276 46.32394695 C20.25499001 46.31030605 20.25499001 46.31030605 18.819767 46.29638958 C11.8068427 46.44881973 7.23667465 48.52067422 1.93913651 53.12863445 C-8.09262173 66.61899525 -12.06791282 86.56090618 -15.33430099 102.7341032 C-16.06086349 106.12863445 -16.06086349 106.12863445 -17.06086349 108.12863445 C-17.46174883 116.14634107 -16.04102319 121.62675929 -11.06086349 128.12863445 C-7.00063156 132.09295539 -3.58627711 134.17314738 2.13444901 134.40988445 C2.93237869 134.44726727 3.73030838 134.48465008 4.55241776 134.5231657 C6.2346957 134.59380568 7.91698756 134.66411516 9.59929276 134.7341032 C15.83782645 135.0273244 15.83782645 135.0273244 16.93913651 136.12863445 C17.03200911 137.54088491 17.05660422 138.9577238 17.0526619 140.37301922 C17.0525486 141.72430668 17.0525486 141.72430668 17.05243301 143.10289288 C17.04727173 144.08205166 17.04211044 145.06121044 17.03679276 146.0700407 C17.03537781 147.06744778 17.03396286 148.06485485 17.03250504 149.09248638 C17.02688765 152.29206569 17.01433221 155.49157614 17.00163651 158.69113445 C16.99662374 160.8545449 16.99206045 163.01795645 16.98796463 165.18136883 C16.97691257 170.49714771 16.96015754 175.81288616 16.93913651 181.12863445 C15.00360916 181.16730633 15.00360916 181.16730633 13.02898026 181.20675945 C11.3114999 181.26307028 9.59405329 181.32041693 7.87663651 181.37863445 C7.02907791 181.39281414 6.18151932 181.40699383 5.30827713 181.4216032 C-1.48320484 181.68382258 -5.81692104 183.24659228 -10.98664474 187.83957195 C-15.58062755 193.35235132 -17.5766563 198.05556715 -17.36945724 205.4294157 C-16.76705866 210.69849697 -15.24823879 215.73504588 -13.74543381 220.8044157 C-12.99422977 223.35486591 -12.27447815 225.91335983 -11.55305099 228.47238445 C-7.1559647 243.77702243 -1.66056451 258.4132235 5.73601151 272.53488445 C6.19709305 273.42087322 6.65817459 274.30686199 7.1332283 275.21969891 C8.01524821 276.89325496 8.91645408 278.55690712 9.84074783 280.20749187 C13.40325423 286.90659134 13.88731221 292.67633116 12.31023026 300.08175945 C9.58137365 306.79543177 6.18965827 311.05695158 -0.38508224 314.26144695 C-5.93674962 316.06067346 -12.71219302 316.21548364 -18.28742599 314.4059782 C-25.09025931 310.70487726 -29.13909148 304.90975671 -32.74836349 298.31613445 C-33.38584518 297.16044964 -33.38584518 297.16044964 -34.03620529 295.98141766 C-39.10118309 286.54074553 -43.0864217 276.64260433 -47.03449631 266.69552898 C-47.84788435 264.66128496 -48.69465235 262.64039203 -49.55305099 260.6247282 C-56.76584935 243.29986941 -60.38391892 224.68616868 -63.43586349 206.25363445 C-63.56314835 205.48872692 -63.6904332 204.72381939 -63.82157516 203.93573284 C-73.96964948 142.3041387 -65.40079241 70.11912519 -31.78742599 16.43332195 C-24.12693964 6.20778587 -12.79524861 0.00833281 0 0 Z " fill="#596369" transform="translate(82.06086349487305,97.87136554718018)"/>
<path d="M0 0 C1.12817689 -0.00935994 1.12817689 -0.00935994 2.27914524 -0.01890898 C4.79505992 -0.03484211 7.31000616 -0.02223405 9.82592773 -0.00964355 C11.63134323 -0.01506455 13.4367543 -0.02218708 15.24215698 -0.03088379 C20.14297705 -0.04912277 25.04346038 -0.04204722 29.94428635 -0.02936745 C35.07224182 -0.01924278 40.2001684 -0.02863164 45.328125 -0.03491211 C53.93974994 -0.04219006 62.55123768 -0.0325969 71.1628418 -0.0135498 C81.12008312 0.00821919 91.07699684 0.00116793 101.03423023 -0.02085543 C109.58213767 -0.03900518 118.12994646 -0.04156982 126.67786694 -0.03110075 C131.78368182 -0.0248635 136.8893427 -0.02403659 141.99514771 -0.0372467 C146.79528266 -0.04879838 151.59499509 -0.04079193 156.39508438 -0.01766968 C158.15711897 -0.01237894 159.9191891 -0.01390261 161.68120956 -0.02272034 C164.08596798 -0.03364535 166.48937102 -0.01995041 168.89404297 0 C169.59200265 -0.00892289 170.28996233 -0.01784577 171.0090723 -0.02703905 C174.33567728 0.02652516 176.44208545 0.5052533 179.37940025 2.10081482 C182.16935966 5.34887896 182.0756087 7.27510828 182.0819397 11.52978516 C182.08973965 12.23683515 182.0975396 12.94388515 182.10557592 13.6723609 C182.12552227 16.04191009 182.10972288 18.40985782 182.09399414 20.77941895 C182.10076916 22.47794025 182.10967164 24.17645421 182.12054443 25.87495422 C182.14335835 30.488658 182.13449292 35.10180338 182.11864901 39.71551704 C182.10600081 44.54099165 182.11772711 49.36641807 182.12557983 54.19189453 C182.13467955 62.2958638 182.12268004 70.39960533 182.09887695 78.50354004 C182.07166504 87.87634389 182.08047898 97.24860396 182.10800898 106.62139463 C182.13068988 114.66483071 182.13390513 122.70810297 182.12081563 130.75156069 C182.1130155 135.55725806 182.11199493 140.36269973 182.12849808 145.16838074 C182.14292879 149.68625564 182.13294708 154.20342867 182.10402679 158.72122765 C182.09740844 160.38047303 182.09932649 162.03977737 182.11034012 163.6989994 C182.12397897 165.96216152 182.1069046 168.2230663 182.0819397 170.48608398 C182.08005457 171.75296303 182.07816944 173.01984207 182.07622719 174.32511139 C181.44702148 177.50793457 181.44702148 177.50793457 179.37940025 179.91505432 C175.80037851 181.8591937 172.8657915 182.06664494 168.89404297 182.01586914 C168.14192504 182.0221091 167.38980711 182.02834907 166.61489773 182.03477812 C164.09898305 182.05071125 161.5840368 182.03810319 159.06811523 182.0255127 C157.26269974 182.03093369 155.45728867 182.03805622 153.65188599 182.04675293 C148.75106592 182.06499191 143.85058259 182.05791636 138.94975662 182.04523659 C133.82180115 182.03511192 128.69387457 182.04450079 123.56591797 182.05078125 C114.95429303 182.0580592 106.34280529 182.04846605 97.73120117 182.02941895 C87.77395984 182.00764995 77.81704612 182.01470121 67.85981274 182.03672457 C59.3119053 182.05487432 50.76409651 182.05743896 42.21617603 182.04696989 C37.11036115 182.04073264 32.00470027 182.03990573 26.89889526 182.05311584 C22.09876031 182.06466752 17.29904788 182.05666107 12.49895859 182.03353882 C10.736924 182.02824808 8.97485387 182.02977175 7.2128334 182.03858948 C4.80807499 182.04951449 2.40467195 182.03581955 0 182.01586914 C-1.04693952 182.02925347 -1.04693952 182.02925347 -2.11502934 182.04290819 C-5.58070063 181.98710477 -7.50993601 181.53443618 -10.48619843 179.70192814 C-13.45177706 176.5538136 -13.24014773 173.58807491 -13.16821289 169.4822998 C-13.1737619 168.67698822 -13.17931091 167.87167664 -13.18502808 167.04196167 C-13.19682901 164.38287661 -13.17254819 161.72549388 -13.14672852 159.06652832 C-13.14501762 157.21855243 -13.14508288 155.37057411 -13.14685059 153.52259827 C-13.14519716 149.65134436 -13.12649348 145.78066942 -13.0949707 141.9095459 C-13.05526514 136.94370384 -13.05092844 131.97861927 -13.05843353 127.01264858 C-13.06150051 123.19766786 -13.04939291 119.38285794 -13.03230286 115.56791878 C-13.02526485 113.73666518 -13.02214929 111.90539222 -13.022995 110.07412529 C-13.02120044 107.51711795 -12.99984968 104.96102445 -12.97290039 102.4041748 C-12.97583099 101.64513351 -12.9787616 100.88609222 -12.98178101 100.10404968 C-12.89850409 94.99201483 -12.89850409 94.99201483 -11.14782715 92.5393219 C-9.15874733 91.25298558 -7.91223987 91.10612478 -5.55297852 91.13293457 C-4.53204102 91.12133301 -4.53204102 91.12133301 -3.49047852 91.10949707 C-1.55297852 91.50793457 -1.55297852 91.50793457 1.44702148 94.50793457 C1.44702148 108.36793457 1.44702148 122.22793457 1.44702148 136.50793457 C56.22702148 136.50793457 111.00702148 136.50793457 167.44702148 136.50793457 C167.44702148 116.37793457 167.44702148 96.24793457 167.44702148 75.50793457 C159.42780396 75.53150024 159.42780396 75.53150024 151.24658203 75.55554199 C133.62062448 75.60515981 115.99466425 75.63850486 98.3686552 75.66337109 C87.67770013 75.67885376 76.98681112 75.69996998 66.29589844 75.73425293 C56.97997187 75.76411247 47.66409313 75.78349938 38.34812003 75.79020005 C33.41331648 75.79411816 28.47864978 75.80335523 23.54389 75.82512474 C18.90234218 75.84543552 14.26098806 75.85177937 9.61940002 75.84725761 C7.91295127 75.84808525 6.20649626 75.85408304 4.50008583 75.86555099 C2.17561321 75.8804108 -0.14812186 75.87691248 -2.47261047 75.86869812 C-3.77510396 75.8714635 -5.07759745 75.87422888 -6.41956043 75.87707806 C-9.55297852 75.50793457 -9.55297852 75.50793457 -11.47085094 74.16759872 C-13.19806526 71.51856198 -12.95076209 69.11588144 -12.97290039 65.98864746 C-12.98136993 65.33139175 -12.98983948 64.67413605 -12.99856567 63.9969635 C-13.02196175 61.82464235 -13.02295729 59.65302842 -13.02172852 57.48059082 C-13.02882869 55.96988135 -13.03652748 54.45917458 -13.0447998 52.94847107 C-13.05825063 49.78177393 -13.05981085 46.61532612 -13.05395508 43.4486084 C-13.04805886 39.39170309 -13.07864253 35.33599451 -13.11907196 31.27932072 C-13.14493063 28.15914981 -13.14782812 25.03926773 -13.1441803 21.91900444 C-13.14587337 20.42346629 -13.15553406 18.92791506 -13.17332458 17.43248177 C-13.19548087 15.33971384 -13.18583445 13.2493763 -13.16821289 11.15661621 C-13.17026733 9.96653458 -13.17232178 8.77645294 -13.17443848 7.55030823 C-12.55297852 4.50793457 -12.55297852 4.50793457 -10.48619843 2.34953213 C-6.90640523 0.10198895 -4.09498244 -0.05235125 0 0 Z " fill="#020302" transform="translate(171.552978515625,112.4920654296875)"/>
<path d="M0 0 C57.75 0 115.5 0 175 0 C175 20.13 175 40.26 175 61 C120.22 61 65.44 61 9 61 C8.505 40.21 8.505 40.21 8 19 C5.9714169 16.62841973 5.9714169 16.62841973 2 16 C2 11.05 2 6.1 2 1 C1.34 0.67 0.68 0.34 0 0 Z " fill="#2950FE" transform="translate(164,188)"/>
<path d="M0 0 C54.78 0 109.56 0 166 0 C166 14.85 166 29.7 166 45 C164.15227361 46.84772639 161.13181668 46.12621177 158.66040039 46.12698364 C157.99054894 46.12854363 157.3206975 46.13010362 156.63054752 46.13171089 C154.36956187 46.13572281 152.10864249 46.13253052 149.84765625 46.12939453 C148.23338786 46.13074849 146.61911978 46.13252839 145.00485229 46.13470459 C140.60828271 46.1392796 136.21173649 46.13748909 131.81516647 46.1343255 C127.22451462 46.13180225 122.63386482 46.13413934 118.04321289 46.13571167 C110.33251586 46.13753347 102.62182839 46.13512679 94.91113281 46.13037109 C85.98328288 46.12492845 77.05545577 46.1266911 68.12760639 46.1321975 C60.47667654 46.13672834 52.82575357 46.13737932 45.17482281 46.13475883 C40.59897678 46.13319589 36.02314149 46.13300274 31.44729614 46.13629532 C27.14640351 46.13917361 22.84554045 46.13719911 18.54465103 46.13140106 C16.96153945 46.13007324 15.3784254 46.13046795 13.79531479 46.13266373 C11.64337556 46.13537437 9.49153262 46.13199519 7.33959961 46.12698364 C5.52884193 46.1264181 5.52884193 46.1264181 3.6815033 46.12584114 C1 46 1 46 0 45 C0 30.15 0 15.3 0 0 Z " fill="#40484D" transform="translate(173,128)"/>
<path d="M0 0 C6.28493532 4.24203091 11.0475475 10.00327288 13.9375 17 C14.27504269 19.71440582 14.46323892 22.10766155 14.4375 24.8125 C14.43105469 25.51882568 14.42460937 26.22515137 14.41796875 26.95288086 C14.16017524 34.33476399 12.05338343 38.74335798 7.03515625 43.98828125 C0.99957259 49.5836496 -4.49041056 52.57978674 -12.875 52.5 C-13.58132568 52.49355469 -14.28765137 52.48710937 -15.01538086 52.48046875 C-22.39726399 52.22267524 -26.80585798 50.11588343 -32.05078125 45.09765625 C-37.68514441 39.02000986 -40.6267491 33.56329635 -40.5 25.125 C-40.49170166 24.41609619 -40.48340332 23.70719238 -40.47485352 22.97680664 C-40.22199297 15.15792663 -37.97640816 10.88657709 -32.8125 5.25 C-24.05964578 -2.76886225 -11.05304871 -5.60249033 0 0 Z " fill="#020201" transform="translate(339.0625,311)"/>
<path d="M0 0 C6.28493532 4.24203091 11.0475475 10.00327288 13.9375 17 C14.27504269 19.71440582 14.46323892 22.10766155 14.4375 24.8125 C14.43105469 25.51882568 14.42460937 26.22515137 14.41796875 26.95288086 C14.16017524 34.33476399 12.05338343 38.74335798 7.03515625 43.98828125 C0.99957259 49.5836496 -4.49041056 52.57978674 -12.875 52.5 C-13.58132568 52.49355469 -14.28765137 52.48710937 -15.01538086 52.48046875 C-22.39726399 52.22267524 -26.80585798 50.11588343 -32.05078125 45.09765625 C-37.68514441 39.02000986 -40.6267491 33.56329635 -40.5 25.125 C-40.49170166 24.41609619 -40.48340332 23.70719238 -40.47485352 22.97680664 C-40.22199297 15.15792663 -37.97640816 10.88657709 -32.8125 5.25 C-24.05964578 -2.76886225 -11.05304871 -5.60249033 0 0 Z " fill="#020101" transform="translate(269.0625,311)"/>
<path d="M0 0 C6.28493532 4.24203091 11.0475475 10.00327288 13.9375 17 C14.27504269 19.71440582 14.46323892 22.10766155 14.4375 24.8125 C14.43105469 25.51882568 14.42460937 26.22515137 14.41796875 26.95288086 C14.16017524 34.33476399 12.05338343 38.74335798 7.03515625 43.98828125 C0.99957259 49.5836496 -4.49041056 52.57978674 -12.875 52.5 C-13.58132568 52.49355469 -14.28765137 52.48710937 -15.01538086 52.48046875 C-22.39726399 52.22267524 -26.80585798 50.11588343 -32.05078125 45.09765625 C-37.68514441 39.02000986 -40.6267491 33.56329635 -40.5 25.125 C-40.49170166 24.41609619 -40.48340332 23.70719238 -40.47485352 22.97680664 C-40.22199297 15.15792663 -37.97640816 10.88657709 -32.8125 5.25 C-24.05964578 -2.76886225 -11.05304871 -5.60249033 0 0 Z " fill="#020201" transform="translate(199.0625,311)"/>
<path d="M0 0 C54.12 0 108.24 0 164 0 C164 4.62 164 9.24 164 14 C109.88 14 55.76 14 0 14 C0 9.38 0 4.76 0 0 Z " fill="#5DC75D" transform="translate(174,264)"/>
<path d="M0 0 C57.75 0 115.5 0 175 0 C175 20.13 175 40.26 175 61 C120.22 61 65.44 61 9 61 C9 47.8 9 34.6 9 21 C9.33 21 9.66 21 10 21 C10 33.87 10 46.74 10 60 C56.86 60 103.72 60 152 60 C152 40.53 152 21.06 152 1 C101.84 1 51.68 1 0 1 C0 0.67 0 0.34 0 0 Z " fill="#1E3BBA" transform="translate(164,188)"/>
<path d="M0 0 C54.78 0 109.56 0 166 0 C166 14.85 166 29.7 166 45 C164.15227361 46.84772639 161.13181668 46.12621177 158.66040039 46.12698364 C157.99054894 46.12854363 157.3206975 46.13010362 156.63054752 46.13171089 C154.36956187 46.13572281 152.10864249 46.13253052 149.84765625 46.12939453 C148.23338786 46.13074849 146.61911978 46.13252839 145.00485229 46.13470459 C140.60828271 46.1392796 136.21173649 46.13748909 131.81516647 46.1343255 C127.22451462 46.13180225 122.63386482 46.13413934 118.04321289 46.13571167 C110.33251586 46.13753347 102.62182839 46.13512679 94.91113281 46.13037109 C85.98328288 46.12492845 77.05545577 46.1266911 68.12760639 46.1321975 C60.47667654 46.13672834 52.82575357 46.13737932 45.17482281 46.13475883 C40.59897678 46.13319589 36.02314149 46.13300274 31.44729614 46.13629532 C27.14640351 46.13917361 22.84554045 46.13719911 18.54465103 46.13140106 C16.96153945 46.13007324 15.3784254 46.13046795 13.79531479 46.13266373 C11.64337556 46.13537437 9.49153262 46.13199519 7.33959961 46.12698364 C5.52884193 46.1264181 5.52884193 46.1264181 3.6815033 46.12584114 C1 46 1 46 0 45 C0 30.15 0 15.3 0 0 Z M1 1 C1 15.52 1 30.04 1 45 C47.86 45 94.72 45 143 45 C143 40.38 143 35.76 143 31 C140.11490087 28.57577814 140.11490087 28.57577814 137 27 C136.07426312 24.18718408 136.07426312 21.81281592 137 19 C137.99 18.46375 138.98 17.9275 140 17.375 C140.99 16.59125 141.98 15.8075 143 15 C143 10.38 143 5.76 143 1 C96.14 1 49.28 1 1 1 Z " fill="#2D3037" transform="translate(173,128)"/>
<path d="M0 0 C3.12578143 1.6720747 5.39281175 3.7856235 7 7 C7.51512617 11.09157355 7.94367269 15.23589546 5.953125 18.95703125 C3.55501226 21.85592636 1.60351712 23.79811835 -2.171875 24.2734375 C-9.98876369 24.58137554 -9.98876369 24.58137554 -13.5625 21.625 C-17.3057723 17.59378368 -17.39037018 14.90519941 -17.359375 9.55078125 C-16.78039966 5.44131496 -15.00085071 3.78650423 -12 1 C-8.27533151 -0.86233425 -4.05504687 -0.57130829 0 0 Z " fill="#FAC03A" transform="translate(331,324)"/>
<path d="M0 0 C3.12578143 1.6720747 5.39281175 3.7856235 7 7 C7.51512617 11.09157355 7.94367269 15.23589546 5.953125 18.95703125 C3.55501226 21.85592636 1.60351712 23.79811835 -2.171875 24.2734375 C-9.98876369 24.58137554 -9.98876369 24.58137554 -13.5625 21.625 C-17.3057723 17.59378368 -17.39037018 14.90519941 -17.359375 9.55078125 C-16.78039966 5.44131496 -15.00085071 3.78650423 -12 1 C-8.27533151 -0.86233425 -4.05504687 -0.57130829 0 0 Z " fill="#EC2D0D" transform="translate(261,324)"/>
<path d="M0 0 C3.12578143 1.6720747 5.39281175 3.7856235 7 7 C7.51512617 11.09157355 7.94367269 15.23589546 5.953125 18.95703125 C3.55501226 21.85592636 1.60351712 23.79811835 -2.171875 24.2734375 C-9.98876369 24.58137554 -9.98876369 24.58137554 -13.5625 21.625 C-17.3057723 17.59378368 -17.39037018 14.90519941 -17.359375 9.55078125 C-16.78039966 5.44131496 -15.00085071 3.78650423 -12 1 C-8.27533151 -0.86233425 -4.05504687 -0.57130829 0 0 Z " fill="#FAC03A" transform="translate(191,324)"/>
<path d="M0 0 C7.26 0 14.52 0 22 0 C22 4.62 22 9.24 22 14 C14.74 14 7.48 14 0 14 C0 9.38 0 4.76 0 0 Z " fill="#09B849" transform="translate(316,264)"/>
<path d="M0 0 C4.62 0 9.24 0 14 0 C14 4.62 14 9.24 14 14 C9.38 14 4.76 14 0 14 C0 9.38 0 4.76 0 0 Z " fill="#A3BBC0" transform="translate(384,264)"/>
<path d="M0 0 C4.62 0 9.24 0 14 0 C14 4.62 14 9.24 14 14 C9.38 14 4.76 14 0 14 C0 9.38 0 4.76 0 0 Z " fill="#A3BBC0" transform="translate(114,264)"/>
<path d="M0 0 C4.62 0 9.24 0 14 0 C14 4.62 14 9.24 14 14 C9.38 14 4.76 14 0 14 C0 9.38 0 4.76 0 0 Z " fill="#BDDBE0" transform="translate(384,234)"/>
<path d="M0 0 C4.62 0 9.24 0 14 0 C14 4.62 14 9.24 14 14 C9.38 14 4.76 14 0 14 C0 9.38 0 4.76 0 0 Z " fill="#BDDBE0" transform="translate(114,234)"/>
<path d="M0 0 C2 1 2 1 3 3 C3.51981506 6.56444611 3.63102777 9.73794446 2 13 C-1.26205554 14.63102777 -4.43555389 14.51981506 -8 14 C-10 13 -10 13 -11 11 C-11.51981506 7.43555389 -11.63102777 4.26205554 -10 1 C-6.73794446 -0.63102777 -3.56444611 -0.51981506 0 0 Z " fill="#010101" transform="translate(320,144)"/>
<path d="M0 0 C2 1 2 1 3 3 C3.51981506 6.56444611 3.63102777 9.73794446 2 13 C-1.26205554 14.63102777 -4.43555389 14.51981506 -8 14 C-10 13 -10 13 -11 11 C-11.51981506 7.43555389 -11.63102777 4.26205554 -10 1 C-6.73794446 -0.63102777 -3.56444611 -0.51981506 0 0 Z " fill="#010102" transform="translate(290,144)"/>
<path d="M0 0 C2 1 2 1 3 3 C3.51981506 6.56444611 3.63102777 9.73794446 2 13 C-1.26205554 14.63102777 -4.43555389 14.51981506 -8 14 C-10 13 -10 13 -11 11 C-11.51981506 7.43555389 -11.63102777 4.26205554 -10 1 C-6.73794446 -0.63102777 -3.56444611 -0.51981506 0 0 Z " fill="#010102" transform="translate(260,144)"/>
<path d="M0 0 C2 1 2 1 3 3 C3.51981506 6.56444611 3.63102777 9.73794446 2 13 C-1.26205554 14.63102777 -4.43555389 14.51981506 -8 14 C-10 13 -10 13 -11 11 C-11.51981506 7.43555389 -11.63102777 4.26205554 -10 1 C-6.73794446 -0.63102777 -3.56444611 -0.51981506 0 0 Z " fill="#010102" transform="translate(230,144)"/>
<path d="M0 0 C2 1 2 1 3 3 C3.51981506 6.56444611 3.63102777 9.73794446 2 13 C-1.26205554 14.63102777 -4.43555389 14.51981506 -8 14 C-10 13 -10 13 -11 11 C-11.51981506 7.43555389 -11.63102777 4.26205554 -10 1 C-6.73794446 -0.63102777 -3.56444611 -0.51981506 0 0 Z " fill="#010102" transform="translate(200,144)"/>
</svg>
